<svg width="23" height="335" viewBox="0 0 23 335" fill="none" xmlns="http://www.w3.org/2000/svg">
<g clip-path="url(#clip0)">
<path d="M10.4258 101H12.418C12.5951 101 12.6836 101.089 12.6836 101.266V124.641C12.6836 124.818 12.5951 124.906 12.418 124.906H10.4258C10.2487 124.906 10.1602 124.818 10.1602 124.641V101.266C10.1602 101.089 10.2487 101 10.4258 101Z" fill="black"/>
<path d="M0.265625 111.691H22.5781C22.7552 111.691 22.8438 111.78 22.8438 111.957V113.949C22.8438 114.126 22.7552 114.215 22.5781 114.215H0.265625C0.0885417 114.215 0 114.126 0 113.949V111.957C0 111.78 0.0885417 111.691 0.265625 111.691Z" fill="black"/>
<path d="M15 169L8.719 175.077L15 181" stroke="#D1D1D1" stroke-width="2" stroke-linecap="round" stroke-linejoin="round"/>
<path d="M9 141L15.281 147.077L9 153" stroke="#707070" stroke-width="2" stroke-linecap="round" stroke-linejoin="round"/>
<path d="M9.58798 80.7242C9.19682 81.1185 8.55925 81.1185 8.16809 80.7242L5.47573 78.0101C5.08456 77.6158 4.447 77.6158 4.05584 78.0101L3.69861 78.3702C3.31187 78.7601 3.31187 79.3888 3.69861 79.7787L8.16809 84.2843C8.55925 84.6786 9.19682 84.6786 9.58798 84.2843L20.3014 73.4843C20.6881 73.0944 20.6881 72.4657 20.3014 72.0758L19.9442 71.7157C19.553 71.3214 18.9154 71.3214 18.5243 71.7157L9.58798 80.7242Z" fill="white"/>
<path d="M8 213L16 205L8 197" stroke="#4BA840" stroke-width="3"/>
<path d="M14.8 231.4H18.4C19.12 231.4 19.6 231.88 19.6 232.6V233.8H4V232.6C4 231.88 4.6 231.4 5.2 231.4H8.8C9.04 230.08 10.36 229 11.8 229C13.24 229 14.56 230.08 14.8 231.4ZM10 231.4H13.6C13.36 230.68 12.52 230.2 11.8 230.2C11.08 230.2 10.24 230.68 10 231.4ZM5.2 235H18.4L17.32 247.12C17.32 247.72 16.72 248.2 16.12 248.2H7.48C6.88 248.2 6.4 247.72 6.28 247.12L5.2 235Z" fill="#D7D8DA"/>
<path d="M16.8239 264.576L13.0531 268.346C12.7016 268.698 12.1317 268.698 11.7803 268.346L8.00946 264.576C7.61349 264.18 6.97151 264.18 6.57554 264.576C6.17957 264.972 6.17957 265.613 6.57554 266.009L10.3464 269.78C10.6978 270.132 10.6978 270.702 10.3463 271.053L6.57554 274.824C6.17957 275.22 6.17957 275.862 6.57554 276.258C6.97151 276.654 7.61349 276.654 8.00946 276.258L11.7803 272.487C12.1317 272.136 12.7016 272.136 13.0531 272.487L16.8239 276.258C17.2198 276.654 17.8618 276.654 18.2578 276.258C18.6538 275.862 18.6538 275.22 18.2578 274.824L14.487 271.053C14.1355 270.702 14.1355 270.132 14.487 269.78L18.2578 266.009C18.6538 265.613 18.6538 264.972 18.2578 264.576C17.8618 264.18 17.2198 264.18 16.8239 264.576Z" fill="white" stroke="white" stroke-width="0.2"/>
<path d="M7 34.089H17.1792" stroke="#4BA840" stroke-width="2"/>
<path d="M12.0898 39.1792V29" stroke="#4BA840" stroke-width="2"/>
<path d="M7 55H17.1792" stroke="#707070" stroke-width="2"/>
<path d="M8.59 10.58L4.42 6.41L3 7.82L8.59 13.41L20.59 1.41L19.18 0L8.59 10.58Z" fill="#4BA840"/>
<path d="M15.41 303.59L10.83 299L15.41 294.41L14 293L8 299L14 305L15.41 303.59Z" fill="#00551C"/>
<path d="M12 321V335" stroke="#4BA840" stroke-width="2" stroke-linecap="round" stroke-linejoin="round"/>
<path d="M5 328H19" stroke="#4BA840" stroke-width="2" stroke-linecap="round" stroke-linejoin="round"/>
</g>
<defs>
<clipPath id="clip0">
<rect width="22.8438" height="335" fill="white"/>
</clipPath>
</defs>
</svg>
