<svg width="84" height="40" viewBox="0 0 84 40" fill="none" xmlns="http://www.w3.org/2000/svg">
<path d="M7.80979 0.585328C7.86967 0.401075 8.13033 0.401075 8.19021 0.585328L9.75137 5.38946C9.77814 5.47186 9.85493 5.52765 9.94157 5.52765L14.993 5.52784C15.1867 5.52785 15.2673 5.77576 15.1105 5.88964L11.024 8.85895C10.9539 8.90988 10.9246 9.00014 10.9513 9.08254L12.5121 13.8868C12.572 14.0711 12.3611 14.2243 12.2044 14.1104L8.11755 11.1414C8.04746 11.0905 7.95254 11.0905 7.88245 11.1414L3.79565 14.1104C3.63891 14.2243 3.42802 14.0711 3.48788 13.8868L5.04868 9.08254C5.07545 9.00014 5.04612 8.90988 4.97603 8.85895L0.88945 5.88964C0.732717 5.77576 0.813268 5.52785 1.00701 5.52784L6.05843 5.52765C6.14507 5.52765 6.22186 5.47186 6.24863 5.38946L7.80979 0.585328Z" fill="#F1D400"/>
<path d="M24.8098 0.585328C24.8697 0.401075 25.1303 0.401075 25.1902 0.585328L26.7514 5.38946C26.7781 5.47186 26.8549 5.52765 26.9416 5.52765L31.993 5.52784C32.1867 5.52785 32.2673 5.77576 32.1105 5.88964L28.024 8.85895C27.9539 8.90988 27.9246 9.00014 27.9513 9.08254L29.5121 13.8868C29.572 14.0711 29.3611 14.2243 29.2044 14.1104L25.1176 11.1414C25.0475 11.0905 24.9525 11.0905 24.8824 11.1414L20.7956 14.1104C20.6389 14.2243 20.428 14.0711 20.4879 13.8868L22.0487 9.08254C22.0754 9.00014 22.0461 8.90988 21.976 8.85895L17.8894 5.88964C17.7327 5.77576 17.8133 5.52785 18.007 5.52784L23.0584 5.52765C23.1451 5.52765 23.2219 5.47186 23.2486 5.38946L24.8098 0.585328Z" fill="#F1D400"/>
<path d="M41.8098 0.585328C41.8697 0.401075 42.1303 0.401075 42.1902 0.585328L43.7514 5.38946C43.7781 5.47186 43.8549 5.52765 43.9416 5.52765L48.993 5.52784C49.1867 5.52785 49.2673 5.77576 49.1105 5.88964L45.024 8.85895C44.9539 8.90988 44.9246 9.00014 44.9513 9.08254L46.5121 13.8868C46.572 14.0711 46.3611 14.2243 46.2044 14.1104L42.1176 11.1414C42.0475 11.0905 41.9525 11.0905 41.8824 11.1414L37.7956 14.1104C37.6389 14.2243 37.428 14.0711 37.4879 13.8868L39.0487 9.08254C39.0754 9.00014 39.0461 8.90988 38.976 8.85895L34.8894 5.88964C34.7327 5.77576 34.8133 5.52785 35.007 5.52784L40.0584 5.52765C40.1451 5.52765 40.2219 5.47186 40.2486 5.38946L41.8098 0.585328Z" fill="#F1D400"/>
<path d="M58.8098 0.585328C58.8697 0.401075 59.1303 0.401075 59.1902 0.585328L60.7514 5.38946C60.7781 5.47186 60.8549 5.52765 60.9416 5.52765L65.993 5.52784C66.1867 5.52785 66.2673 5.77576 66.1105 5.88964L62.024 8.85895C61.9539 8.90988 61.9246 9.00014 61.9513 9.08254L63.5121 13.8868C63.572 14.0711 63.3611 14.2243 63.2044 14.1104L59.1176 11.1414C59.0475 11.0905 58.9525 11.0905 58.8824 11.1414L54.7956 14.1104C54.6389 14.2243 54.428 14.0711 54.4879 13.8868L56.0487 9.08254C56.0754 9.00014 56.0461 8.90988 55.976 8.85895L51.8894 5.88964C51.7327 5.77576 51.8133 5.52785 52.007 5.52784L57.0584 5.52765C57.1451 5.52765 57.2219 5.47186 57.2486 5.38946L58.8098 0.585328Z" fill="#F1D400"/>
<path d="M75.8098 0.585328C75.8697 0.401075 76.1303 0.401075 76.1902 0.585328L77.7514 5.38946C77.7781 5.47186 77.8549 5.52765 77.9416 5.52765L82.993 5.52784C83.1867 5.52785 83.2673 5.77576 83.1105 5.88964L79.024 8.85895C78.9539 8.90988 78.9246 9.00014 78.9513 9.08254L80.5121 13.8868C80.572 14.0711 80.3611 14.2243 80.2044 14.1104L76.1176 11.1414C76.0475 11.0905 75.9525 11.0905 75.8824 11.1414L71.7956 14.1104C71.6389 14.2243 71.428 14.0711 71.4879 13.8868L73.0487 9.08254C73.0754 9.00014 73.0461 8.90988 72.976 8.85895L68.8894 5.88964C68.7327 5.77576 68.8133 5.52785 69.007 5.52784L74.0584 5.52765C74.1451 5.52765 74.2219 5.47186 74.2486 5.38946L75.8098 0.585328Z" fill="#F1D400"/>
<path d="M7.80979 24.5853C7.86967 24.4011 8.13033 24.4011 8.19021 24.5853L9.75137 29.3895C9.77814 29.4719 9.85493 29.5276 9.94157 29.5276L14.993 29.5278C15.1867 29.5278 15.2673 29.7758 15.1105 29.8896L11.024 32.8589C10.9539 32.9099 10.9246 33.0001 10.9513 33.0825L12.5121 37.8868C12.572 38.0711 12.3611 38.2243 12.2044 38.1104L8.11755 35.1414C8.04746 35.0905 7.95254 35.0905 7.88245 35.1414L3.79565 38.1104C3.63891 38.2243 3.42802 38.0711 3.48788 37.8868L5.04868 33.0825C5.07545 33.0001 5.04612 32.9099 4.97603 32.8589L0.88945 29.8896C0.732717 29.7758 0.813268 29.5278 1.00701 29.5278L6.05843 29.5276C6.14507 29.5276 6.22186 29.4719 6.24863 29.3895L7.80979 24.5853Z" fill="#C7C7C7"/>
<path d="M24.8098 24.5853C24.8697 24.4011 25.1303 24.4011 25.1902 24.5853L26.7514 29.3895C26.7781 29.4719 26.8549 29.5276 26.9416 29.5276L31.993 29.5278C32.1867 29.5278 32.2673 29.7758 32.1105 29.8896L28.024 32.8589C27.9539 32.9099 27.9246 33.0001 27.9513 33.0825L29.5121 37.8868C29.572 38.0711 29.3611 38.2243 29.2044 38.1104L25.1176 35.1414C25.0475 35.0905 24.9525 35.0905 24.8824 35.1414L20.7956 38.1104C20.6389 38.2243 20.428 38.0711 20.4879 37.8868L22.0487 33.0825C22.0754 33.0001 22.0461 32.9099 21.976 32.8589L17.8894 29.8896C17.7327 29.7758 17.8133 29.5278 18.007 29.5278L23.0584 29.5276C23.1451 29.5276 23.2219 29.4719 23.2486 29.3895L24.8098 24.5853Z" fill="#C7C7C7"/>
<path d="M41.8098 24.5853C41.8697 24.4011 42.1303 24.4011 42.1902 24.5853L43.7514 29.3895C43.7781 29.4719 43.8549 29.5276 43.9416 29.5276L48.993 29.5278C49.1867 29.5278 49.2673 29.7758 49.1105 29.8896L45.024 32.8589C44.9539 32.9099 44.9246 33.0001 44.9513 33.0825L46.5121 37.8868C46.572 38.0711 46.3611 38.2243 46.2044 38.1104L42.1176 35.1414C42.0475 35.0905 41.9525 35.0905 41.8824 35.1414L37.7956 38.1104C37.6389 38.2243 37.428 38.0711 37.4879 37.8868L39.0487 33.0825C39.0754 33.0001 39.0461 32.9099 38.976 32.8589L34.8894 29.8896C34.7327 29.7758 34.8133 29.5278 35.007 29.5278L40.0584 29.5276C40.1451 29.5276 40.2219 29.4719 40.2486 29.3895L41.8098 24.5853Z" fill="#C7C7C7"/>
<path d="M58.8098 24.5853C58.8697 24.4011 59.1303 24.4011 59.1902 24.5853L60.7514 29.3895C60.7781 29.4719 60.8549 29.5276 60.9416 29.5276L65.993 29.5278C66.1867 29.5278 66.2673 29.7758 66.1105 29.8896L62.024 32.8589C61.9539 32.9099 61.9246 33.0001 61.9513 33.0825L63.5121 37.8868C63.572 38.0711 63.3611 38.2243 63.2044 38.1104L59.1176 35.1414C59.0475 35.0905 58.9525 35.0905 58.8824 35.1414L54.7956 38.1104C54.6389 38.2243 54.428 38.0711 54.4879 37.8868L56.0487 33.0825C56.0754 33.0001 56.0461 32.9099 55.976 32.8589L51.8894 29.8896C51.7327 29.7758 51.8133 29.5278 52.007 29.5278L57.0584 29.5276C57.1451 29.5276 57.2219 29.4719 57.2486 29.3895L58.8098 24.5853Z" fill="#C7C7C7"/>
<path d="M75.8098 24.5853C75.8697 24.4011 76.1303 24.4011 76.1902 24.5853L77.7514 29.3895C77.7781 29.4719 77.8549 29.5276 77.9416 29.5276L82.993 29.5278C83.1867 29.5278 83.2673 29.7758 83.1105 29.8896L79.024 32.8589C78.9539 32.9099 78.9246 33.0001 78.9513 33.0825L80.5121 37.8868C80.572 38.0711 80.3611 38.2243 80.2044 38.1104L76.1176 35.1414C76.0475 35.0905 75.9525 35.0905 75.8824 35.1414L71.7956 38.1104C71.6389 38.2243 71.428 38.0711 71.4879 37.8868L73.0487 33.0825C73.0754 33.0001 73.0461 32.9099 72.976 32.8589L68.8894 29.8896C68.7327 29.7758 68.8133 29.5278 69.007 29.5278L74.0584 29.5276C74.1451 29.5276 74.2219 29.4719 74.2486 29.3895L75.8098 24.5853Z" fill="#C7C7C7"/>
</svg>
