<svg version="1.1" id="Layer_1" xmlns="http://www.w3.org/2000/svg" x="0" y="0" viewBox="0 0 185 185" xml:space="preserve"><style>.st2{fill:#9b9b9b}</style><path fill="#eee" d="M0 0h185v185H0z"/><g opacity=".4"><path class="st2" d="M68.6 112.8c-2.3 0-4.2-1.9-4.2-4.2V78.7c0-2.3 1.9-4.2 4.2-4.2h3.3L68.8 71h-.2c-4.3 0-7.7 3.5-7.7 7.7v29.9c0 4.2 3.5 7.7 7.7 7.7h40.6l-3.1-3.5H68.6zM116.4 71h-7.6c-.3 0-.6-.2-.7-.5l-2.2-4.8c-.7-1.5-2.1-2.4-3.8-2.4H82.9c-1.6 0-3.1 1-3.8 2.4l-2.2 4.8c-.1.2-.2.3-.4.4l2.3 2.6c.5-.4 1-1 1.3-1.6l2.2-4.8c.1-.2.3-.4.6-.4h19.2c.2 0 .5.2.6.4l2.2 4.8c.7 1.5 2.2 2.5 3.9 2.5h7.6c2.3 0 4.2 1.9 4.2 4.2v29.9c0 2.3-1.9 4.2-4.2 4.2h-2.6l3.1 3.5c4-.2 7.3-3.6 7.3-7.7V78.7c-.1-4.2-3.5-7.7-7.8-7.7zm0 50.9c-.5 0-1-.2-1.3-.6L65.9 66c-.6-.7-.6-1.8.1-2.5s1.8-.6 2.5.1l49.2 55.3c.6.7.6 1.8-.1 2.5-.3.3-.7.5-1.2.5"/><path class="st2" d="M92.5 105.2c-6.3 0-11.4-5.1-11.4-11.5 0-2.5.8-4.7 2.1-6.6l-2.4-2.7c-2.1 2.6-3.2 5.9-3.2 9.3 0 8.2 6.7 14.9 14.9 14.9 2.9 0 5.6-.8 7.8-2.2l-2.4-2.7c-1.6 1-3.5 1.5-5.4 1.5m0-26.4c-2.6 0-5.1.7-7.3 1.9l2.4 2.7c1.5-.7 3.2-1.1 4.9-1.1 6.3 0 11.4 5.1 11.4 11.4 0 2.1-.6 4.2-1.7 6.1l2.4 2.7c1.8-2.5 2.8-5.6 2.8-8.8 0-8.2-6.7-14.9-14.9-14.9"/></g></svg>