<svg width="28" height="27" viewBox="0 0 28 27" fill="none" xmlns="http://www.w3.org/2000/svg">
<path d="M13.2626 12.739C9.1547 16.8262 5.04649 20.913 0.939 25.0005C0.388993 25.5478 0.305021 26.1033 0.698138 26.5696C1.13404 27.0867 1.79833 27.089 2.32908 26.5633C3.75875 25.1467 5.18466 23.7263 6.6113 22.3067C13.4385 15.5138 20.2656 8.72064 27.0924 1.92754C27.6248 1.3977 27.6949 0.812528 27.2811 0.357017C26.8407 -0.127938 26.193 -0.118892 25.6747 0.394267C24.321 1.73419 22.9723 3.07891 21.622 4.4222C18.8354 7.19429 16.049 9.96674 13.2626 12.739Z" fill="#00B3A4"/>
<path d="M23.9705 18.4729C22.2991 20.1358 20.7004 21.7264 19.1017 23.3169C18.5271 23.8886 17.9516 24.4594 17.3782 25.0324C16.827 25.5833 16.7719 26.218 17.2336 26.6676C17.6836 27.1061 18.3108 27.049 18.8475 26.5154C20.9264 24.4486 23.0042 22.3804 25.0824 20.3128C25.183 20.2128 25.2835 20.1127 25.4456 19.9515C25.4545 20.1894 25.4645 20.3314 25.4645 20.4737C25.465 22.239 25.4686 24.0043 25.4608 25.7694C25.4584 26.2786 25.6431 26.6682 26.1224 26.8697C26.8357 27.1696 27.5404 26.6588 27.5453 25.8323C27.5545 24.2423 27.5474 22.6523 27.547 21.0622C27.5469 19.8899 27.5508 18.7176 27.5449 17.5452C27.5412 16.7947 27.1404 16.391 26.3935 16.3899C23.6305 16.3862 20.8676 16.3863 18.1046 16.3892C17.3875 16.3899 16.9252 16.8156 16.937 17.4451C16.9482 18.0456 17.4185 18.4569 18.1124 18.4583C19.8867 18.4615 21.661 18.459 23.4353 18.4597C23.5802 18.4597 23.7252 18.4667 23.9705 18.4729Z" fill="#00B3A4"/>
<path d="M7.42943 2.15765C7.1251 2.46044 6.82095 2.76305 6.51661 3.06584C4.70703 4.86553 2.89744 6.66522 1.08804 8.46492C0.992296 8.56017 0.895131 8.65418 0.802423 8.75227C0.352077 9.22871 0.331575 9.85167 0.751078 10.2721C1.17005 10.6921 1.81009 10.6813 2.2763 10.227C2.94362 9.57673 3.59953 8.91493 4.26007 8.25791C5.73448 6.79152 7.20889 5.32494 8.6833 3.85855C8.75872 3.78369 8.83396 3.70866 8.98122 3.56232C8.98674 3.78245 8.99316 3.92045 8.99316 4.05828C8.9937 5.86311 8.98978 7.66795 8.9953 9.47279C8.99709 10.0601 9.39145 10.5032 9.93147 10.5566C10.4695 10.6098 10.9557 10.252 11.0548 9.72147C11.0768 9.60369 11.0746 9.48041 11.0748 9.35962C11.0755 6.6521 11.0759 3.94475 11.0741 1.23759C11.0736 0.380312 10.6968 0.0051539 9.83716 0.00462176C7.11601 0.00302535 4.39503 0.00710508 1.67388 9.89624e-06C1.22121 -0.00123176 0.838793 0.114065 0.601497 0.516716C0.18449 1.22482 0.692779 2.06542 1.55157 2.07056C3.33852 2.0812 5.12546 2.075 6.91241 2.07233C7.07268 2.07216 7.23296 2.04821 7.39324 2.03544C7.40536 2.07606 7.41749 2.11686 7.42943 2.15765Z" fill="#00B3A4"/>
</svg>
