<svg width="24" height="25" viewBox="0 0 24 25" fill="none" xmlns="http://www.w3.org/2000/svg">
<path d="M12 22.9603C13.1 22.9603 14 22.0603 14 20.9603H10C10 22.0603 10.9 22.9603 12 22.9603ZM18 16.9603V11.9603C18 8.89025 16.37 6.32025 13.5 5.64025V4.96025C13.5 4.13025 12.83 3.46025 12 3.46025C11.17 3.46025 10.5 4.13025 10.5 4.96025V5.64025C7.64 6.32025 6 8.88025 6 11.9603V16.9603L4 18.9603V19.9603H20V18.9603L18 16.9603ZM16 17.9603H8V11.9603C8 9.48025 9.51 7.46025 12 7.46025C14.49 7.46025 16 9.48025 16 11.9603V17.9603Z" fill="#00B3A4"/>
</svg>
