<svg width="24" height="25" viewBox="0 0 24 25" fill="none" xmlns="http://www.w3.org/2000/svg">
<path d="M12 6.86025C13.16 6.86025 14.1 7.80025 14.1 8.96025C14.1 10.1203 13.16 11.0603 12 11.0603C10.84 11.0603 9.9 10.1203 9.9 8.96025C9.9 7.80025 10.84 6.86025 12 6.86025ZM12 15.8603C14.97 15.8603 18.1 17.3203 18.1 17.9603V19.0603H5.9V17.9603C5.9 17.3203 9.03 15.8603 12 15.8603ZM12 4.96025C9.79 4.96025 8 6.75025 8 8.96025C8 11.1703 9.79 12.9603 12 12.9603C14.21 12.9603 16 11.1703 16 8.96025C16 6.75025 14.21 4.96025 12 4.96025ZM12 13.9603C9.33 13.9603 4 15.3003 4 17.9603V20.9603H20V17.9603C20 15.3003 14.67 13.9603 12 13.9603Z" fill="#00B3A4"/>
</svg>
