<svg width="24" height="25" viewBox="0 0 24 25" fill="none" xmlns="http://www.w3.org/2000/svg">
<path d="M15.5 14.9603H14.71L14.43 14.6903C15.41 13.5503 16 12.0703 16 10.4603C16 6.87025 13.09 3.96025 9.5 3.96025C5.91 3.96025 3 6.87025 3 10.4603C3 14.0503 5.91 16.9603 9.5 16.9603C11.11 16.9603 12.59 16.3703 13.73 15.3903L14 15.6703V16.4603L19 21.4503L20.49 19.9603L15.5 14.9603V14.9603ZM9.5 14.9603C7.01 14.9603 5 12.9503 5 10.4603C5 7.97025 7.01 5.96025 9.5 5.96025C11.99 5.96025 14 7.97025 14 10.4603C14 12.9503 11.99 14.9603 9.5 14.9603Z" fill="#04A284"/>
</svg>
