<svg width="48" height="404" viewBox="0 0 48 404" fill="none" xmlns="http://www.w3.org/2000/svg">
<path d="M28.4072 8.57554L24.6364 12.3464C24.2849 12.6978 23.7151 12.6978 23.3636 12.3464L19.5928 8.57554C19.1968 8.17957 18.5548 8.17957 18.1589 8.57554C17.7629 8.97151 17.7629 9.61349 18.1589 10.0095L21.9297 13.7803C22.2812 14.1317 22.2812 14.7016 21.9297 15.0531L18.1589 18.8239C17.7629 19.2198 17.7629 19.8618 18.1589 20.2578C18.5548 20.6538 19.1968 20.6538 19.5928 20.2578L23.3636 16.487C23.7151 16.1355 24.2849 16.1355 24.6364 16.487L28.4072 20.2578C28.8032 20.6538 29.4452 20.6538 29.8411 20.2578C30.2371 19.8618 30.2371 19.2198 29.8411 18.8239L26.0703 15.0531C25.7188 14.7016 25.7188 14.1317 26.0703 13.7803L29.8411 10.0095C30.2371 9.61349 30.2371 8.97151 29.8411 8.57554C29.4452 8.17957 28.8032 8.17957 28.4072 8.57554Z" fill="#2C2C2C" stroke="#2C2C2C" stroke-width="0.2"/>
<path d="M20.795 47.4133L16.625 43.2433L15.205 44.6533L20.795 50.2433L32.795 38.2433L31.385 36.8333L20.795 47.4133Z" fill="#4BA840"/>
<path d="M27.1405 66.2433L20.8595 72.3203L27.1405 78.2433" stroke="#707070" stroke-width="2" stroke-linecap="round" stroke-linejoin="round"/>
<path d="M21.5718 102.446L18.3734 99.1889L17 100.588L21.5718 105.243L31 95.6419L29.6266 94.2433L21.5718 102.446Z" fill="white"/>
<path d="M18 122.653L19.41 121.243L24 125.823L28.59 121.243L30 122.653L24 128.653L18 122.653Z" fill="black"/>
<path d="M29.1061 156.634L29.2121 156.528L29.1061 156.422L28.2311 155.547L28.125 155.441L28.0189 155.547L24 159.566L19.9811 155.547L19.875 155.441L19.7689 155.547L18.8939 156.422L18.7879 156.528L18.8939 156.634L22.9129 160.653L18.8939 164.672L18.7879 164.778L18.8939 164.884L19.7689 165.759L19.875 165.865L19.9811 165.759L24 161.74L28.0189 165.759L28.125 165.865L28.2311 165.759L29.1061 164.884L29.2121 164.778L29.1061 164.672L25.0871 160.653L29.1061 156.634Z" fill="white" stroke="white" stroke-width="0.3"/>
<path d="M39 160.653C39 152.369 32.2843 145.653 24 145.653C15.7157 145.653 9 152.369 9 160.653C9 168.937 15.7157 175.653 24 175.653C32.2843 175.653 39 168.937 39 160.653Z" stroke="white" stroke-width="2"/>
<path d="M18.9104 192.653H29.0896" stroke="#2E2E33" stroke-width="2"/>
<path d="M18.9104 208.653H29.0896" stroke="#4BA840" stroke-width="2"/>
<path d="M18.9104 229.742H29.0896" stroke="#4BA840" stroke-width="2"/>
<path d="M24.0004 234.833V224.653" stroke="#4BA840" stroke-width="2"/>
<path d="M27.2044 251L20 257.583L27.2044 264" stroke="#00551C" stroke-width="2" stroke-linecap="square" stroke-linejoin="round"/>
<path d="M21 292L27 286L21 280" stroke="#4BA840" stroke-width="2"/>
<path d="M28.8239 308.576L25.0531 312.346C24.7016 312.698 24.1317 312.698 23.7803 312.346L20.0095 308.576C19.6135 308.18 18.9715 308.18 18.5755 308.576C18.1796 308.972 18.1796 309.613 18.5755 310.009L22.3464 313.78C22.6978 314.132 22.6978 314.702 22.3463 315.053L18.5755 318.824C18.1796 319.22 18.1796 319.862 18.5755 320.258C18.9715 320.654 19.6135 320.654 20.0095 320.258L23.7803 316.487C24.1317 316.136 24.7016 316.136 25.0531 316.487L28.8239 320.258C29.2198 320.654 29.8618 320.654 30.2578 320.258C30.6538 319.862 30.6538 319.22 30.2578 318.824L26.487 315.053C26.1355 314.702 26.1355 314.132 26.487 313.78L30.2578 310.009C30.6538 309.613 30.6538 308.972 30.2578 308.576C29.8618 308.18 29.2198 308.18 28.8239 308.576Z" fill="#2E2E33" stroke="#2E2E33" stroke-width="0.2"/>
<path d="M30.6667 346.167C30.4457 346.167 30.2337 346.254 30.0774 346.411C29.9211 346.567 29.8333 346.779 29.8333 347V352C29.8333 352.221 29.7455 352.433 29.5893 352.589C29.433 352.746 29.221 352.833 29 352.833H19C18.779 352.833 18.567 352.746 18.4107 352.589C18.2545 352.433 18.1667 352.221 18.1667 352V342C18.1667 341.779 18.2545 341.567 18.4107 341.411C18.567 341.254 18.779 341.167 19 341.167H24C24.221 341.167 24.433 341.079 24.5893 340.923C24.7455 340.766 24.8333 340.554 24.8333 340.333C24.8333 340.112 24.7455 339.9 24.5893 339.744C24.433 339.588 24.221 339.5 24 339.5H19C18.337 339.5 17.7011 339.763 17.2322 340.232C16.7634 340.701 16.5 341.337 16.5 342V352C16.5 352.663 16.7634 353.299 17.2322 353.768C17.7011 354.237 18.337 354.5 19 354.5H29C29.663 354.5 30.2989 354.237 30.7678 353.768C31.2366 353.299 31.5 352.663 31.5 352V347C31.5 346.779 31.4122 346.567 31.2559 346.411C31.0996 346.254 30.8877 346.167 30.6667 346.167Z" fill="#4BA840"/>
<path d="M27.3333 341.167H28.65L23.4083 346.4C23.3302 346.477 23.2682 346.57 23.2259 346.671C23.1836 346.773 23.1618 346.882 23.1618 346.992C23.1618 347.102 23.1836 347.211 23.2259 347.312C23.2682 347.414 23.3302 347.506 23.4083 347.583C23.4858 347.661 23.578 347.723 23.6795 347.766C23.7811 347.808 23.89 347.83 24 347.83C24.11 347.83 24.2189 347.808 24.3205 347.766C24.422 347.723 24.5142 347.661 24.5917 347.583L29.8333 342.35V343.667C29.8333 343.888 29.9211 344.1 30.0774 344.256C30.2337 344.412 30.4457 344.5 30.6667 344.5C30.8877 344.5 31.0997 344.412 31.2559 344.256C31.4122 344.1 31.5 343.888 31.5 343.667V340.333C31.5 340.112 31.4122 339.9 31.2559 339.744C31.0997 339.588 30.8877 339.5 30.6667 339.5H27.3333C27.1123 339.5 26.9004 339.588 26.7441 339.744C26.5878 339.9 26.5 340.112 26.5 340.333C26.5 340.554 26.5878 340.766 26.7441 340.923C26.9004 341.079 27.1123 341.167 27.3333 341.167V341.167Z" fill="#4BA840"/>
<path d="M30.9333 373.816L30.7713 373.652C30.3405 373.215 29.6357 373.215 29.205 373.652L24.4181 378.505C24.0657 378.862 23.489 378.862 23.1366 378.505L18.3497 373.652C17.919 373.215 17.2142 373.215 16.7834 373.652L16.6214 373.816C16.199 374.244 16.199 374.932 16.6214 375.361L21.4469 380.253C21.7926 380.603 21.7926 381.167 21.4469 381.517L16.6214 386.409C16.199 386.838 16.199 387.526 16.6214 387.954L16.7834 388.118C17.2142 388.555 17.919 388.555 18.3497 388.118L23.1366 383.265C23.489 382.908 24.0657 382.908 24.4181 383.265L29.205 388.118C29.6357 388.555 30.3405 388.555 30.7713 388.118L30.9333 387.954C31.3557 387.526 31.3557 386.838 30.9333 386.409L26.1078 381.517C25.7621 381.167 25.7621 380.603 26.1078 380.253L30.9333 375.361C31.3557 374.932 31.3557 374.244 30.9333 373.816Z" fill="white" stroke="white" stroke-width="0.2"/>
</svg>
