<svg width="23" height="395" viewBox="0 0 23 395" fill="none" xmlns="http://www.w3.org/2000/svg">
<g clip-path="url(#clip0_4393_2824)">
<mask id="mask0_4393_2824" style="mask-type:luminance" maskUnits="userSpaceOnUse" x="0" y="0" width="23" height="395">
<path d="M22.8438 0H0V395H22.8438V0Z" fill="white"/>
</mask>
<g mask="url(#mask0_4393_2824)">
<path d="M10.4258 101H12.418C12.5951 101 12.6836 101.089 12.6836 101.266V124.641C12.6836 124.818 12.5951 124.906 12.418 124.906H10.4258C10.2487 124.906 10.1602 124.818 10.1602 124.641V101.266C10.1602 101.089 10.2487 101 10.4258 101Z" fill="black"/>
<path d="M0.265625 111.691H22.5781C22.7552 111.691 22.8438 111.78 22.8438 111.957V113.949C22.8438 114.126 22.7552 114.215 22.5781 114.215H0.265625C0.0885417 114.215 0 114.126 0 113.949V111.957C0 111.78 0.0885417 111.691 0.265625 111.691Z" fill="black"/>
<path d="M14.9998 169L8.71875 175.077L14.9998 181" stroke="#D1D1D1" stroke-width="2" stroke-linecap="round" stroke-linejoin="round"/>
<path d="M9 141L15.281 147.077L9 153" stroke="#707070" stroke-width="2" stroke-linecap="round" stroke-linejoin="round"/>
<path d="M9.58763 80.7242C9.19647 81.1185 8.5589 81.1185 8.16774 80.7242L5.47538 78.0101C5.08421 77.6158 4.44665 77.6158 4.05549 78.0101L3.69826 78.3702C3.31152 78.7601 3.31152 79.3888 3.69826 79.7787L8.16774 84.2843C8.5589 84.6786 9.19647 84.6786 9.58763 84.2843L20.301 73.4843C20.6877 73.0944 20.6877 72.4657 20.301 72.0758L19.9438 71.7157C19.5526 71.3214 18.915 71.3214 18.5239 71.7157L9.58763 80.7242Z" fill="white"/>
<path d="M8 213L16 205L8 197" stroke="#4BA840" stroke-width="3"/>
<path d="M14.8 231.4H18.4C19.12 231.4 19.6 231.88 19.6 232.6V233.8H4V232.6C4 231.88 4.6 231.4 5.2 231.4H8.8C9.04 230.08 10.36 229 11.8 229C13.24 229 14.56 230.08 14.8 231.4ZM10 231.4H13.6C13.36 230.68 12.52 230.2 11.8 230.2C11.08 230.2 10.24 230.68 10 231.4ZM5.2 235H18.4L17.32 247.12C17.32 247.72 16.72 248.2 16.12 248.2H7.48C6.88 248.2 6.4 247.72 6.28 247.12L5.2 235Z" fill="#D7D8DA"/>
<path d="M16.8237 264.576L13.0529 268.346C12.7014 268.698 12.1315 268.698 11.7801 268.346L8.00922 264.576C7.61325 264.18 6.97127 264.18 6.5753 264.576C6.17933 264.972 6.17933 265.613 6.5753 266.009L10.3462 269.78C10.6976 270.132 10.6976 270.702 10.3461 271.053L6.5753 274.824C6.17933 275.22 6.17933 275.862 6.5753 276.258C6.97127 276.654 7.61325 276.654 8.00922 276.258L11.7801 272.487C12.1315 272.136 12.7014 272.136 13.0529 272.487L16.8237 276.258C17.2196 276.654 17.8616 276.654 18.2576 276.258C18.6536 275.862 18.6536 275.22 18.2576 274.824L14.4868 271.053C14.1353 270.702 14.1353 270.132 14.4868 269.78L18.2576 266.009C18.6536 265.613 18.6536 264.972 18.2576 264.576C17.8616 264.18 17.2196 264.18 16.8237 264.576Z" fill="white" stroke="white" stroke-width="0.2"/>
<path d="M7 34.089H17.1792" stroke="#4BA840" stroke-width="2"/>
<path d="M12.0898 39.1792V29" stroke="#4BA840" stroke-width="2"/>
<path d="M7 55H17.1792" stroke="#707070" stroke-width="2"/>
<path d="M8.59 10.58L4.42 6.41L3 7.82L8.59 13.41L20.59 1.41L19.18 0L8.59 10.58Z" fill="#4BA840"/>
<path d="M15.41 303.59L10.83 299L15.41 294.41L14 293L8 299L14 305L15.41 303.59Z" fill="#00551C"/>
<path d="M12 321V335" stroke="#4BA840" stroke-width="2" stroke-linecap="round" stroke-linejoin="round"/>
<path d="M5 328H19" stroke="#4BA840" stroke-width="2" stroke-linecap="round" stroke-linejoin="round"/>
<path d="M16.4923 354.659L17.2283 353.387C17.3167 353.234 17.3408 353.052 17.2951 352.881C17.2495 352.71 17.1379 352.565 16.9849 352.476L15.7116 351.74V350.273C15.7116 350.097 15.6414 349.927 15.5163 349.802C15.3913 349.677 15.2217 349.607 15.0449 349.607H13.5789L12.8436 348.334C12.7548 348.181 12.6094 348.07 12.4389 348.023C12.3544 348 12.2661 347.994 12.1792 348.006C12.0924 348.017 12.0087 348.046 11.9329 348.09L10.6596 348.826L9.38626 348.089C9.23314 348.001 9.05118 347.977 8.88039 348.023C8.70961 348.068 8.564 348.18 8.47559 348.333L7.73959 349.607H6.27359C6.09678 349.607 5.92721 349.677 5.80219 349.802C5.67717 349.927 5.60693 350.097 5.60693 350.273V351.739L4.33359 352.475C4.25762 352.519 4.19102 352.577 4.13764 352.647C4.08425 352.716 4.04513 352.796 4.02252 352.88C3.99991 352.965 3.99425 353.053 4.00588 353.14C4.0175 353.227 4.04618 353.311 4.09026 353.387L4.82626 354.659L4.09026 355.931C4.00225 356.084 3.97837 356.266 4.02383 356.436C4.06929 356.607 4.1804 356.753 4.33293 356.842L5.60626 357.578V359.044C5.60626 359.221 5.6765 359.39 5.80152 359.515C5.92655 359.64 6.09612 359.711 6.27293 359.711H7.73959L8.47559 360.984C8.53461 361.085 8.61888 361.169 8.72011 361.227C8.82134 361.286 8.93604 361.317 9.05293 361.317C9.16893 361.317 9.28426 361.287 9.38693 361.227L10.6589 360.491L11.9323 361.227C12.0853 361.316 12.2672 361.34 12.4379 361.294C12.6086 361.248 12.7543 361.137 12.8429 360.984L13.5783 359.711H15.0443C15.2211 359.711 15.3906 359.64 15.5157 359.515C15.6407 359.39 15.7109 359.221 15.7109 359.044V357.578L16.9843 356.842C17.0601 356.798 17.1266 356.74 17.1799 356.67C17.2331 356.601 17.2722 356.521 17.2948 356.437C17.3174 356.352 17.3231 356.264 17.3116 356.177C17.3 356.09 17.2715 356.006 17.2276 355.931L16.4923 354.659ZM8.99226 351.319C9.25757 351.319 9.51197 351.424 9.69951 351.612C9.88704 351.8 9.99235 352.054 9.99226 352.319C9.99217 352.585 9.8867 352.839 9.69903 353.027C9.51137 353.214 9.2569 353.319 8.99159 353.319C8.72629 353.319 8.47189 353.214 8.28435 353.026C8.09681 352.838 7.99151 352.584 7.99159 352.319C7.99168 352.053 8.09716 351.799 8.28482 351.611C8.47248 351.424 8.72696 351.319 8.99226 351.319ZM9.19226 357.719L8.12559 356.919L12.1256 351.586L13.1923 352.385L9.19226 357.719ZM12.3256 357.985C12.1942 357.985 12.0642 357.959 11.9428 357.909C11.8215 357.859 11.7112 357.785 11.6183 357.692C11.5255 357.599 11.4518 357.489 11.4016 357.367C11.3514 357.246 11.3255 357.116 11.3256 356.985C11.3256 356.853 11.3516 356.723 11.4019 356.602C11.4522 356.481 11.5259 356.37 11.6188 356.277C11.7117 356.185 11.822 356.111 11.9434 356.061C12.0648 356.01 12.1949 355.985 12.3263 355.985C12.5916 355.985 12.846 356.09 13.0335 356.278C13.221 356.466 13.3263 356.72 13.3263 356.985C13.3262 357.251 13.2207 357.505 13.033 357.693C12.8454 357.88 12.5909 357.985 12.3256 357.985Z" fill="#CE2010"/>
<g clip-path="url(#clip1_4393_2824)">
<path d="M10.2998 376.5H11.6998V377.9H10.2998V376.5ZM10.2998 379.3H11.6998V383.5H10.2998V379.3Z" fill="#4BA840"/>
<path d="M11 373C7.15 373 4 376.15 4 380C4 383.85 7.15 387 11 387C14.85 387 18 383.85 18 380C18 376.15 14.85 373 11 373ZM11 385.6C7.92 385.6 5.4 383.08 5.4 380C5.4 376.92 7.92 374.4 11 374.4C14.08 374.4 16.6 376.92 16.6 380C16.6 383.08 14.08 385.6 11 385.6Z" fill="#4BA840"/>
</g>
</g>
</g>
<defs>
<clipPath id="clip0_4393_2824">
<rect width="23" height="395" fill="white"/>
</clipPath>
<clipPath id="clip1_4393_2824">
<rect width="14" height="14" fill="white" transform="translate(4 373)"/>
</clipPath>
</defs>
</svg>
