<svg width="14" height="13" viewBox="0 0 14 13" fill="none" xmlns="http://www.w3.org/2000/svg">
<path d="M12.841 2.06029C13.237 1.66433 13.237 1.02234 12.841 0.626374C12.4451 0.230408 11.8031 0.230408 11.4071 0.626374L7.63631 4.39719C7.28484 4.74866 6.71499 4.74866 6.36352 4.39718L2.59271 0.626373C2.19675 0.230407 1.55476 0.230408 1.15879 0.626374C0.762825 1.02234 0.762825 1.66433 1.15879 2.0603L4.9296 5.83111C5.28107 6.18258 5.28107 6.75243 4.9296 7.1039L1.15879 10.8747C0.762824 11.2707 0.762825 11.9127 1.15879 12.3086C1.55476 12.7046 2.19675 12.7046 2.59271 12.3086L6.36352 8.53782C6.71499 8.18635 7.28484 8.18635 7.63631 8.53782L11.4071 12.3086C11.8031 12.7046 12.4451 12.7046 12.841 12.3086C13.237 11.9127 13.237 11.2707 12.841 10.8747L9.07024 7.1039C8.71876 6.75243 8.71876 6.18258 9.07024 5.83111L12.841 2.06029Z" fill="black" stroke="black" stroke-width="0.2"/>
</svg>
