<svg xmlns="http://www.w3.org/2000/svg" xmlns:xlink="http://www.w3.org/1999/xlink" width="390" height="41" viewBox="0 0 390 41"><defs><clipPath id="b"><rect width="390" height="41"/></clipPath></defs><g id="a" clip-path="url(#b)"><g transform="translate(8.375 1)"><path d="M7.5,0,15,13H0Z" transform="translate(23.625 11.75) rotate(90)" fill="#fff"/><g transform="translate(55.366 15) rotate(90)"><path d="M8.783,7.309,1.628.154a.483.483,0,0,0-.706,0L.154.921a.483.483,0,0,0,0,.706L6.188,7.662.154,13.7a.483.483,0,0,0,0,.706l.768.767a.483.483,0,0,0,.706,0L8.782,8.015a.484.484,0,0,0,0-.707Z" transform="translate(0 0)" fill="#111"/></g><g transform="translate(117 5)"><g transform="translate(0)" fill="#f1f7ff" stroke="#cde2ff" stroke-width="3"><circle cx="14.5" cy="14.5" r="14.5" stroke="none"/><circle cx="14.5" cy="14.5" r="13" fill="none"/></g><path d="M236.68,2345.62h4.974l5.923,6.758-5.923,7.29H236.68l5.961-7.29Z" transform="translate(-227.257 -2338)" fill="#0056af"/></g><g transform="translate(72.244 5)"><g transform="translate(-0.243)" fill="#f1f7ff" stroke="#cde2ff" stroke-width="3"><circle cx="14.5" cy="14.5" r="14.5" stroke="none"/><circle cx="14.5" cy="14.5" r="13" fill="none"/></g><path d="M247.577,2345.62H242.6l-5.923,6.758,5.923,7.29h4.974l-5.961-7.29Z" transform="translate(-228 -2338)" fill="#0056af"/></g><path d="M-15190.3,10631.332l5,4.615,8.268-10" transform="translate(15352.803 -10611.447)" fill="none" stroke="#fff" stroke-linecap="round" stroke-width="2"/><g transform="translate(182 -1)"><path d="M30,12.021,27.979,10,20,17.979,12.021,10,10,12.021,17.979,20,10,27.979,12.021,30,20,22.021,27.979,30,30,27.979,22.021,20Z" fill="#3b2e1d"/></g><path d="M3647.315,3766.576l5.375,5.658-5.375,5.374" transform="translate(-3419.084 -3752.632)" fill="none" stroke="#000" stroke-linecap="round" stroke-linejoin="round" stroke-width="1.5"/><g transform="translate(289.423 -22)"><path d="M236.68,2345.62h6.92l8.241,9.4-8.241,10.143h-6.92l8.294-10.143Z" transform="translate(-220.39 -2317.62)" fill="#fff"/></g><g transform="translate(266 -21)"><path d="M251.842,2345.62h-6.92l-8.241,9.4,8.241,10.143h6.92l-8.294-10.143Z" transform="translate(-228.132 -2317.62)" fill="#fff" opacity="0.5"/></g><path d="M12.772,6,6.741,12.031,4,9.289" transform="translate(245.511 7.5)" fill="none" stroke="#fff" stroke-width="2"/><g transform="translate(9610 -2002.859)"><path d="M-9273,2008.859h3.828l4.431,18.238,13.093-.306" fill="none" stroke="#fff" stroke-width="2"/><path d="M-9264.324,2016.169h20.786l-3.924,9.934h-14.468Z" transform="translate(-3.779 -3.184)" fill="none" stroke="#fff" stroke-width="2"/><g transform="translate(-9266.742 2026.353)" fill="none" stroke="#fff" stroke-width="2"><circle cx="2.257" cy="2.257" r="2.257" stroke="none"/><circle cx="2.257" cy="2.257" r="1.257" fill="none"/></g><g transform="translate(-9255.458 2026.353)" fill="none" stroke="#fff" stroke-width="2"><circle cx="2.257" cy="2.257" r="2.257" stroke="none"/><circle cx="2.257" cy="2.257" r="1.257" fill="none"/></g></g></g></g></svg>