<?xml version="1.0" encoding="utf-8"?>
<!-- Generator: Adobe Illustrator 24.2.0, SVG Export Plug-In . SVG Version: 6.00 Build 0)  -->
<svg version="1.1" id="Layer_1" xmlns="http://www.w3.org/2000/svg" xmlns:xlink="http://www.w3.org/1999/xlink" x="0px" y="0px"
	 viewBox="0 0 481.1 150.6" style="enable-background:new 0 0 481.1 150.6;" xml:space="preserve">
<style type="text/css">
	.st0{opacity:0.326;fill:#666666;enable-background:new    ;}
	.st1{fill:#FFFFFF;stroke:#006699;stroke-miterlimit:10;}
	.st2{fill:none;stroke:#006699;stroke-width:2;stroke-linecap:round;stroke-linejoin:round;}
	.st3{fill:#E64C3C;}
	.st4{fill:#9C6C4D;}
	.st5{fill:none;stroke:#FFFFFF;}
	.st6{fill:#B2863F;}
	.st7{fill:#B96666;}
	.st8{fill:#707070;}
	.st9{fill:#FFFFFF;}
	.st10{fill:#006699;}
	.st11{display:none;}
	.st12{display:inline;}
	.st13{display:inline;fill:#FFFFFF;}
	.st14{fill:#E61002;}
	.st15{fill:#101010;}
</style>
<path id="iconfinder_icon-ios7-arrow-left_211689" d="M24,7.7l-1,1l7.9,8.5l7.9-8.5l-1-1l-6.9,7.4L24,7.7z"/>
<path id="iconfinder_shop-01_186387" class="st0" d="M88.3,18.8l2.5-7.4c0.1-0.2,0.1-0.5-0.1-0.7s-0.6-0.4-0.9-0.4h-14l-0.4-1.9
	c-0.1-0.5-0.5-0.9-1-0.9h-3.9c-0.4,0-0.6,0.4-0.6,0.8v1c0,0.4,0.2,0.3,0.6,0.3h3.3l2.5,10.9c-0.4,0.5-0.6,1.1-0.6,1.7
	c0,1.3,1,2.4,2.3,2.4c1.1-0.1,2-0.9,2.3-1.9h5c0.2,1.1,1.2,1.9,2.3,2c1.3,0,2.3-1,2.3-2.3c0.1-1.3-0.8-2.4-2.1-2.5
	c-0.1,0-0.1,0-0.2,0c-0.7-0.1-1.4,0.2-1.7,0.8h-6.1c-0.4-0.6-1-0.9-1.7-0.9L78,19.3h9.3C88.1,19.3,88.2,19.2,88.3,18.8z M77.2,22.4
	c0-0.5,0.4-0.9,0.9-0.9s0.9,0.4,0.9,0.9s-0.4,0.9-0.9,0.9c-0.2,0-0.5-0.1-0.6-0.3C77.3,22.9,77.2,22.7,77.2,22.4z M87.7,23.3
	c-0.5,0-0.9-0.4-0.9-0.9s0.4-0.9,0.9-0.9s0.9,0.4,0.9,0.9c0,0.2-0.1,0.5-0.3,0.6C88.2,23.2,87.9,23.3,87.7,23.3z"/>
<g id="Ellipse_13" transform="translate(51 9)">
	<path class="st1" d="M81,17.2c-5.2,0-9.5-4.3-9.5-9.5s4.3-9.5,9.5-9.5s9.5,4.3,9.5,9.5S86.2,17.2,81,17.2z"/>
	<path class="st1" d="M81-1.3c-5,0-9,4-9,9s4,9,9,9s9-4,9-9S86-1.3,81-1.3 M81-2.3c5.5,0,10,4.5,10,10s-4.5,10-10,10s-10-4.5-10-10
		S75.5-2.3,81-2.3z"/>
</g>
<path id="iconfinder_check_3325079" class="st2" d="M136.3,14.2l-6,6l-2.7-2.7"/>
<g id="Plus" transform="translate(3134.229 4230.824) rotate(45)">
	
		<rect id="Rectangle_12" x="-5101.6" y="-778.9" transform="matrix(5.070363e-06 1 -1 5.070363e-06 -5869.6318 4314.0591)" class="st3" width="19.4" height="2.2"/>
	
		<rect id="Rectangle_13" x="-5093" y="-787.5" transform="matrix(5.070363e-06 1 -1 5.070363e-06 -5869.6323 4314.0601)" class="st3" width="2.2" height="19.4"/>
</g>
<g id="Plus-2" transform="translate(3257.859 5012) rotate(45)">
	<path id="Rectangle_12-2" d="M-5696-1287.8v22.3h-2.9v-22.3H-5696z"/>
	<path id="Rectangle_13-2" d="M-5686.3-1275.2h-22.3v-2.9h22.3V-1275.2z"/>
</g>
<g id="Group_34" transform="translate(2952 4407.86)">
	<g transform="matrix(1, 0, 0, 1, 174, 541.49)">
		<g id="Ellipse_33-2_1_" transform="translate(179 73.65)">
			<circle class="st4" cx="-3119.5" cy="-4942.8" r="6.5"/>
			<circle class="st5" cx="-3119.5" cy="-4942.8" r="6"/>
		</g>
	</g>
	<g id="Ellipse_32" transform="translate(347 615.143)">
		<ellipse class="st6" cx="-3119" cy="-4942.8" rx="7" ry="6.5"/>
		<ellipse class="st5" cx="-3119" cy="-4942.8" rx="6.5" ry="6"/>
	</g>
	<g id="Ellipse_31" transform="translate(343 615.143)">
		<circle class="st7" cx="-3119.5" cy="-4942.8" r="6.5"/>
		<circle class="st5" cx="-3119.5" cy="-4942.8" r="6"/>
	</g>
</g>
<g id="Fill" transform="translate(3345 5019)">
	<rect id="Rectangle_93" x="-3115" y="-4941.3" class="st3" width="1" height="8"/>
	<rect id="Rectangle_94" x="-3113" y="-4941.3" class="st3" width="1" height="8"/>
	<rect id="Rectangle_95" x="-3117" y="-4941.3" class="st3" width="1" height="8"/>
	<path id="Path_11" class="st3" d="M-3112-4944.8v-0.6c0-1-0.8-1.9-1.9-1.9h-1.3c-1,0-1.9,0.8-1.9,1.9v0.6h-5v1.3h1.3v11.9
		c0,1,0.8,1.9,1.9,1.9l0,0h8.8c1,0,1.9-0.8,1.9-1.9l0,0v-11.9h1.3v-1.3H-3112z M-3115.8-4945.5c0-0.3,0.3-0.6,0.6-0.6h1.3
		c0.3,0,0.6,0.3,0.6,0.6v0.6h-2.5L-3115.8-4945.5L-3115.8-4945.5z M-3109.5-4931.7c0,0.3-0.3,0.6-0.6,0.6h-8.8
		c-0.3,0-0.6-0.3-0.6-0.6v-11.9h10L-3109.5-4931.7L-3109.5-4931.7z"/>
</g>
<path id="iconfinder_new-24_103173" class="st8" d="M283.6,76.5c-0.7-1.2-1.7-2.1-2.8-2.8l1-1c0.8,0,1.5,0.2,2.1,0.7
	c0.5,0.6,0.7,1.4,0.7,2.1L283.6,76.5z M275.4,84.7h-2.8v-2.8l0.3-0.3c1.2,0.6,2.2,1.6,2.8,2.8L275.4,84.7z M282.8,77.3l-6.3,6.3
	c-0.3-0.6-0.8-1.1-1.2-1.6c-0.5-0.5-1-0.9-1.6-1.2l6.3-6.3C281.2,75,282.2,76,282.8,77.3z M271.1,74.8v11.3h11.3v-5l2.1-2.2v7.8
	c0,0.8-0.6,1.4-1.4,1.4h-12.7c-0.8,0-1.4-0.6-1.4-1.4V74.1c0-0.8,0.6-1.4,1.4-1.4h7.8l-2.1,2.1C276.1,74.8,271.1,74.8,271.1,74.8z"
	/>
<g id="Group_4691">
	<g id="Group_4690">
		<path id="Path_26" d="M387.8,86.7l-4.2-4.2c2.1-2.6,1.7-6.3-0.8-8.4c-2.6-2.1-6.3-1.7-8.4,0.8c-2.1,2.6-1.7,6.3,0.8,8.4
			c2.2,1.8,5.4,1.8,7.6,0l4.2,4.2c0.2,0.2,0.6,0.2,0.8,0C388,87.2,388,86.9,387.8,86.7z M382.4,82c-1.9,1.9-4.9,1.9-6.8,0
			s-1.9-4.9,0-6.8s4.9-1.9,6.8,0C384.2,77.1,384.3,80.1,382.4,82L382.4,82z"/>
	</g>
</g>
<circle class="st9" cx="376.9" cy="103.6" r="5.2"/>
<g id="Group_4691_1_">
	<g id="Group_4690_1_">
		<path id="Path_26_1_" class="st10" d="M386.3,111.9l-4.2-4.2c2.1-2.6,1.7-6.3-0.8-8.4c-2.6-2.1-6.3-1.7-8.4,0.8
			c-2.1,2.6-1.7,6.3,0.8,8.4c2.2,1.8,5.4,1.8,7.6,0l4.2,4.2c0.2,0.2,0.6,0.2,0.8,0C386.5,112.4,386.5,112.1,386.3,111.9z
			 M380.9,107.3c-1.9,1.9-4.9,1.9-6.8,0s-1.9-4.9,0-6.8s4.9-1.9,6.8,0C382.7,102.3,382.7,105.4,380.9,107.3
			C380.9,107.2,380.9,107.3,380.9,107.3z"/>
	</g>
</g>
<g id="Group_4691_2_" class="st11">
	<g id="Group_4690_2_" class="st12">
		<path id="Path_26_2_" class="st10" d="M469,110.4l-4.2-4.2c2.1-2.6,1.7-6.3-0.8-8.4c-2.6-2.1-6.3-1.7-8.4,0.8
			c-2.1,2.6-1.7,6.3,0.8,8.4c2.2,1.8,5.4,1.8,7.6,0l4.2,4.2c0.2,0.2,0.6,0.2,0.8,0C469.2,110.9,469.2,110.6,469,110.4z M463.6,105.7
			c-1.9,1.9-4.9,1.9-6.8,0s-1.9-4.9,0-6.8s4.9-1.9,6.8,0C465.4,100.8,465.4,103.9,463.6,105.7L463.6,105.7z"/>
	</g>
</g>
<g id="Group_4693" transform="translate(2.52 2.52)">
	<g id="Group_4692">
		<path id="Path_27" d="M379.3,75.5H377v-2.3c0-0.3-0.3-0.6-0.6-0.6c-0.3,0-0.6,0.3-0.6,0.6v2.3h-2.3c-0.3,0-0.6,0.3-0.6,0.6
			c0,0.3,0.3,0.6,0.6,0.6h2.3V79c0,0.3,0.3,0.6,0.6,0.6c0.3,0,0.6-0.3,0.6-0.6v-2.3h2.3c0.3,0,0.6-0.3,0.6-0.6
			S379.6,75.5,379.3,75.5L379.3,75.5z"/>
	</g>
</g>
<g id="Plus-3" transform="translate(2738.434 4453.165)">
	<path id="Rectangle_12-3" class="st9" d="M-2505.7-4446.4v17.1h-3.2v-17.1H-2505.7z"/>
	<path id="Rectangle_12-4" class="st9" d="M-2498.7-4439.4h-17.1v3.2h17.1V-4439.4z"/>
</g>
<g id="Group_41" transform="translate(3071 4746.255)">
	<g transform="matrix(1, 0, 0, 1, 55, 203.09)" class="st11">
		<circle id="Ellipse_34-2_1_" class="st13" cx="-3096" cy="-4867.4" r="15"/>
	</g>
	<path id="plus-4" d="M-3040.6-4679.6c-8.5,0-15.4,6.9-15.4,15.4s6.9,15.4,15.4,15.4s15.4-6.9,15.4-15.4
		C-3025.1-4672.7-3032-4679.6-3040.6-4679.6L-3040.6-4679.6z M-3033.1-4663h-6.2v6.5c0,0.7-0.6,1.2-1.2,1.2c-0.6,0-1.1-0.5-1.2-1.2
		v-6.5h-6.2c-0.7,0-1.2-0.5-1.2-1.2s0.5-1.2,1.2-1.2c0,0,0,0,0.1,0h6.2v-5.9c0-0.7,0.5-1.2,1.2-1.2s1.2,0.5,1.2,1.2c0,0,0,0,0,0.1
		v5.9h6.2c0.7,0,1.2,0.6,1.2,1.2C-3032-4663.5-3032.5-4663-3033.1-4663L-3033.1-4663z"/>
</g>
<g id="Polygon_1" transform="translate(3562 5036) rotate(180)">
	<path id="Path_1" d="M3132.3,4957.8h-5.5l2.8-7.1L3132.3,4957.8z"/>
	<path id="Path_2" d="M3129.5,4952.1l-2,5.2h4.1L3129.5,4952.1 M3129.5,4949.3l3.5,9h-7L3129.5,4949.3z"/>
</g>
<g id="Group_4704" transform="translate(369.5 3435.055)">
	<g id="sale" transform="translate(3223.5 1522.945)">
		<g id="Group_4702">
			<g id="Group_4701">
				<path id="Path_28" class="st14" d="M-3124.4-4949.3h4.5c0.4,0,0.8,0.2,1.1,0.5l6.4,6.4c0.6,0.6,0.6,1.7,0,2.3l0,0l-4.5,4.5
					c-0.6,0.6-1.7,0.6-2.3,0l0,0l-6.4-6.4c-0.3-0.3-0.5-0.7-0.5-1.1v-4.5C-3126-4948.6-3125.3-4949.3-3124.4-4949.3z
					 M-3122.2-4943.9c0.9,0,1.6-0.7,1.6-1.6s-0.7-1.6-1.6-1.6c-0.9,0-1.6,0.7-1.6,1.6S-3123.1-4943.9-3122.2-4943.9z"/>
			</g>
		</g>
	</g>
</g>
<path id="Path_1-2" d="M470.2,78.7l3.8,3.8l3.8-3.8l1.2,1.2l-5,5l-5-5L470.2,78.7z"/>
<path id="Rectangle_664" d="M272.1,13.7h17.1v2.2h-17.1V13.7z"/>
<g id="Group_39" transform="translate(3060.001 3812)">
	<g id="Plus-5" transform="translate(-219.567 641.165)">
		<path id="Rectangle_12-5" d="M-2506.6-4446.4v17.1h-2.2v-17.1H-2506.6z"/>
		<path id="Rectangle_13-3" d="M-2499.2-4436.7h-17.1v-2.2h17.1V-4436.7z"/>
	</g>
</g>
<g id="Group_39-2" transform="translate(3057.001 3873)">
	<g id="Plus-6" transform="translate(390.116 1144.117)">
		<path id="Rectangle_12-6" d="M-3113.4-4949.3v22.3h-2.9v-22.3H-3113.4z"/>
		<path id="Rectangle_13-4" d="M-3103.7-4936.8h-22.3v-2.9h22.3V-4936.8z"/>
	</g>
</g>
<path id="iconfinder_arrow56_216567_1_" class="st11" d="M383.2,27.2l-2.4,1.7l-13.5-13.6l-0.9-0.8l0.9-0.8L380.8,0l2.4,1.7
	l-11.9,12.7L383.2,27.2z"/>
<path id="iconfinder_arrow56_216567_1_2" class="st11" d="M424.5,1.7l2.4-1.7l13.5,13.6l0.9,0.8l-0.9,0.8l-13.5,13.6l-2.4-1.7
	l11.9-12.7L424.5,1.7z"/>
<g id="Group_29" transform="translate(-9 4)">
	<g id="Group_30" transform="translate(6 -5)">
		
			<rect id="Rectangle_27" x="174.4" y="15.6" transform="matrix(0.695 -0.719 0.719 0.695 44.3967 138.8781)" class="st9" width="23" height="3"/>
		
			<rect id="Rectangle_28" x="173.9" y="15.6" transform="matrix(0.6691 -0.7431 0.7431 0.6691 42.332 137.353)" class="st9" width="3" height="11"/>
	</g>
</g>
<path class="st15" d="M432.6,20.1c-0.2,0.2-0.2,0.5,0,0.7c0.2,0.2,0.5,0.2,0.7,0c0,0,0,0,0,0l6-6c0.2-0.2,0.2-0.5,0-0.7l-6-6
	c-0.2-0.2-0.5-0.2-0.7,0c0,0,0,0,0,0c-0.2,0.2-0.2,0.5,0,0.7l5.4,5.6L432.6,20.1z"/>
<path d="M374.9,20.1c0.2,0.2,0.2,0.5,0,0.7c-0.2,0.2-0.5,0.2-0.7,0c0,0,0,0,0,0l-6-6c-0.2-0.2-0.2-0.5,0-0.7l6-6
	c0.2-0.2,0.5-0.2,0.7,0c0,0,0,0,0,0c0.2,0.2,0.2,0.5,0,0.7l-5.4,5.6L374.9,20.1z"/>
<path class="st11" d="M128.8,142.5H21.7c-6.6,0-12-5.4-12-12v-7c0-6.6,5.4-12,12-12h107.1c6.6,0,12,5.4,12,12v7
	C140.8,137.1,135.4,142.5,128.8,142.5z"/>
<path class="st9" d="M31.3,135L31.3,135c-0.6,0-1.1-0.5-1.1-1.1v-14.8c0-0.6,0.5-1.1,1.1-1.1h0c0.6,0,1.1,0.5,1.1,1.1v14.8
	C32.5,134.5,32,135,31.3,135z"/>
<path class="st9" d="M39.6,126.5L39.6,126.5c0,0.6-0.5,1.1-1.1,1.1H23.6c-0.6,0-1.1-0.5-1.1-1.1v0c0-0.6,0.5-1.1,1.1-1.1h14.8
	C39.1,125.3,39.6,125.8,39.6,126.5z"/>
<path class="st9" d="M93.9,126.5L93.9,126.5c0,0.6-0.5,1.1-1.1,1.1H77.9c-0.6,0-1.1-0.5-1.1-1.1v0c0-0.6,0.5-1.1,1.1-1.1h14.8
	C93.4,125.4,93.9,125.9,93.9,126.5z"/>
</svg>
