<svg xmlns="http://www.w3.org/2000/svg" width="477.11" height="26.267" viewBox="0 0 477.11 26.267"><g transform="translate(-210 -212.001)"><g transform="translate(256.856 222) rotate(90)"><path d="M8.783,7.309,1.628.154a.483.483,0,0,0-.706,0L.154.921a.483.483,0,0,0,0,.706L6.188,7.662.154,13.7a.483.483,0,0,0,0,.706l.768.767a.483.483,0,0,0,.706,0L8.782,8.015a.484.484,0,0,0,0-.707Z" fill="#111"/></g><path d="M-15190.3,10631.2l4.807,4.512,7.945-9.774" transform="translate(15554.293 -10404.222)" fill="none" stroke="#fff" stroke-linecap="round" stroke-width="2"/><path d="M-15190.3,10631.2l4.807,4.512,7.945-9.774" transform="translate(15818.479 -10407.802)" fill="none" stroke="#fff" stroke-linecap="round" stroke-width="2"/><g transform="translate(383.49 206)"><path d="M30,12.021,27.979,10,20,17.979,12.021,10,10,12.021,17.979,20,10,27.979,12.021,30,20,22.021,27.979,30,30,27.979,22.021,20Z" fill="#fff"/></g><g transform="translate(490.913 185)"><path d="M236.68,2345.62h6.92l8.241,9.4-8.241,10.143h-6.92l8.294-10.143Z" transform="translate(-220.39 -2317.62)" fill="#fff"/></g><g transform="translate(467.49 186)"><path d="M251.842,2345.62h-6.92l-8.241,9.4,8.241,10.143h6.92l-8.294-10.143Z" transform="translate(-228.132 -2317.62)" fill="#fff" opacity="0.5"/></g><path d="M12.772,6,6.741,12.031,4,9.289" transform="translate(447.001 214.5)" fill="none" stroke="#fff" stroke-width="2"/><g transform="translate(9811.49 -1795.859)"><path d="M-9273,2008.86h3.828l4.431,18.238,13.093-.306" fill="none" stroke="#fff" stroke-width="2"/><path d="M-9264.32,2016.17h20.786l-3.924,9.934h-14.468Z" transform="translate(-3.779 -3.184)" fill="none" stroke="#fff" stroke-width="2"/><g transform="translate(-9266.742 2026.353)" fill="none" stroke="#fff" stroke-width="2"><circle cx="2.257" cy="2.257" r="2.257" stroke="none"/><circle cx="2.257" cy="2.257" r="1.257" fill="none"/></g><g transform="translate(-9255.458 2026.353)" fill="none" stroke="#fff" stroke-width="2"><circle cx="2.257" cy="2.257" r="2.257" stroke="none"/><circle cx="2.257" cy="2.257" r="1.257" fill="none"/></g></g><path d="M218.9,333.382a.673.673,0,1,0,.647.673.673.673,0,0,0-.647-.673Z" transform="translate(-2.386 -104.874)" fill="red"/><path d="M12.742,33.7a3.18,3.18,0,0,0,.005-2.76l-4.2-8.665a2.251,2.251,0,0,0-2.011-1.39,2.258,2.258,0,0,0-2.011,1.387L.312,30.943A3.206,3.206,0,0,0,.32,33.719,2.259,2.259,0,0,0,2.325,35.09h8.4a2.277,2.277,0,0,0,2.017-1.39Zm-.913-.626a1.249,1.249,0,0,1-1.109.764H2.32a1.23,1.23,0,0,1-1.1-.748,1.763,1.763,0,0,1,0-1.524L5.43,22.9a1.227,1.227,0,0,1,1.1-.757,1.233,1.233,0,0,1,1.1.76l4.207,8.671a1.74,1.74,0,0,1-.008,1.5Z" transform="translate(210 197.846)" fill="red"/><path d="M218.3,157.2a.817.817,0,0,0-.58.82c.018.237.033.478.051.715.051.9.1,1.79.153,2.694a.55.55,0,0,0,.562.529.562.562,0,0,0,.562-.547c0-.186,0-.357.018-.547.033-.58.069-1.159.1-1.739.018-.375.051-.751.069-1.126a.927.927,0,0,0-.069-.375.753.753,0,0,0-.866-.424Z" transform="translate(-1.949 65.222)" fill="red"/><g transform="translate(873 -626)"><rect width="3" height="16" transform="translate(-280 842)" fill="#ccc"/><rect width="3" height="16" transform="translate(-270.5 849.005) rotate(90)" fill="#ccc"/></g><rect width="2" height="16" transform="translate(678.11 216)" fill="#3695d6"/><rect width="2" height="16" transform="translate(687.11 223.005) rotate(90)" fill="#3695d6"/><g transform="translate(115.148 -2.187)" opacity="0.67"><path d="M124.518,11.041,113.668.192a.651.651,0,0,0-.921.921L123.135,11.5,112.748,21.887A.653.653,0,0,0,113.2,23a.635.635,0,0,0,.458-.193l10.85-10.85a.647.647,0,0,0,0-.916Z" transform="translate(99.537 217.187)" fill="#111"/></g><g transform="translate(495.795 466.26) rotate(-177)" opacity="0.67"><path d="M124.518,11.041,113.668.192a.651.651,0,0,0-.921.921L123.135,11.5,112.748,21.887A.653.653,0,0,0,113.2,23a.635.635,0,0,0,.458-.193l10.85-10.85a.647.647,0,0,0,0-.916Z" transform="translate(99.537 217.187)" fill="#111"/></g></g></svg>