<svg width="41" height="613" viewBox="0 0 41 613" fill="none" xmlns="http://www.w3.org/2000/svg">
<path d="M21.5625 149.181L26.875 144.052" stroke="#00B1BF" stroke-width="2" stroke-linecap="round" stroke-linejoin="round"/>
<path d="M23.3335 144.052H26.8752V147.471" stroke="#00B1BF" stroke-width="2" stroke-linecap="round" stroke-linejoin="round"/>
<path d="M26.875 151.575V154.994C26.875 155.357 26.7257 155.705 26.4601 155.961C26.1944 156.218 25.8341 156.362 25.4583 156.362H15.5417C15.1659 156.362 14.8056 156.218 14.5399 155.961C14.2743 155.705 14.125 155.357 14.125 154.994V145.42C14.125 145.057 14.2743 144.709 14.5399 144.452C14.8056 144.196 15.1659 144.052 15.5417 144.052H19.0833" stroke="#00B1BF" stroke-width="2" stroke-linecap="round" stroke-linejoin="round"/>
<path fill-rule="evenodd" clip-rule="evenodd" d="M23.4444 190.25H19V198.028H11V202.472H19V210.25H23.4444V202.472H31V198.028H23.4444V190.25Z" fill="#3C3C3B"/>
<path d="M18 259.25L24 253.25L18 247.25" fill="#3C3C3B"/>
<path d="M27 359L15 371" stroke="white" stroke-width="2" stroke-linecap="round" stroke-linejoin="round"/>
<path d="M15 359L27 371" stroke="white" stroke-width="2" stroke-linecap="round" stroke-linejoin="round"/>
<path d="M18.2517 16.0478L15.0629 12.859L14 13.922L18.2517 18.1736L27.3624 9.06291L26.2994 8L18.2517 16.0478Z" fill="#3C3C3B"/>
<path d="M18.2971 59.8736C17.9065 60.2638 17.2736 60.2636 16.8832 59.8732L14.1246 57.1146C13.7351 56.7251 13.1034 56.7243 12.7125 57.1125C12.3196 57.5026 12.3181 58.1381 12.7096 58.5296L16.8829 62.7029C17.2734 63.0934 17.9066 63.0934 18.2971 62.7029L28.8848 52.1152C29.2743 51.7257 29.2743 51.0943 28.8848 50.7048C28.4955 50.3155 27.8643 50.3154 27.4748 50.7045L18.2971 59.8736Z" fill="#E7721B"/>
<path d="M24.8889 319.028L16 310.139L24.8889 301.25" stroke="#3C3C3B" stroke-width="2" stroke-linecap="round" stroke-linejoin="round"/>
<rect x="16" y="423.25" width="9" height="2" fill="#3C3C3B"/>
<path fill-rule="evenodd" clip-rule="evenodd" d="M19.5 474.75L19.5 478.25H21.5V474.75H25V472.75H21.5V469.25H19.5L19.5 472.75H16V474.75H19.5Z" fill="#3C3C3B"/>
<path d="M12 527.716H13.2M30 527.716H28.8M13.2 527.716L14.25 535.25H27.3L28.8 527.716M13.2 527.716H28.8M17.25 530.08V532.739M20.85 530.08V532.739M24.45 530.08V532.739M22.5 522.25L27.15 527.716M19.35 522.25L14.7 527.716" stroke="#3C3C3B" stroke-width="1.5" stroke-linecap="round" stroke-linejoin="round"/>
<path fill-rule="evenodd" clip-rule="evenodd" d="M12.4055 579.769C12.0215 580.257 11.9974 580.535 12.0002 584.447C12.0033 589.045 12.0912 589.463 13.1079 589.726C13.6098 589.856 13.7501 590.014 13.8533 590.564C14.2653 592.761 17.6965 592.796 18.2617 590.609L18.4228 589.985L20.2156 589.929L22.0082 589.872L22.1378 590.462C22.3259 591.319 23.4652 592.25 24.3244 592.25C25.5743 592.25 26.77 591.249 26.77 590.203C26.77 590.007 27.013 589.89 27.5086 589.849C28.0871 589.801 28.2602 589.697 28.3067 589.37C28.3475 589.085 28.238 588.919 27.962 588.847C27.5892 588.75 27.5578 588.592 27.5578 586.816V584.89L26.0313 583.368C24.677 582.017 24.3992 581.83 23.5692 581.707C22.6732 581.575 22.6336 581.542 22.6336 580.928C22.6336 580.576 22.4498 580.054 22.2253 579.769L21.8172 579.25H17.3154H12.8137L12.4055 579.769ZM21.6034 584.519L21.5503 588.803L19.9182 588.86C18.3383 588.916 18.2674 588.899 17.7028 588.334C16.6658 587.297 15.5352 587.303 14.431 588.351C14.078 588.686 13.6543 588.908 13.4461 588.868C13.1054 588.803 13.077 588.507 13.0274 584.516L12.9744 580.235H17.3154H21.6564L21.6034 584.519ZM24.9106 583.612C25.4999 584.169 25.9821 584.701 25.9821 584.794C25.9821 584.886 25.2287 584.962 24.3078 584.962H22.6336V583.78V582.598H23.2363C23.6917 582.598 24.101 582.846 24.9106 583.612ZM26.6504 586.259C26.8434 586.761 26.7875 588.277 26.571 588.41C26.4617 588.478 26.1473 588.356 25.8724 588.14C25.1394 587.564 24.362 587.454 23.5162 587.807C23.1126 587.976 22.749 588.114 22.708 588.114C22.6671 588.114 22.6336 587.626 22.6336 587.03V585.947H24.5822C26.1775 585.947 26.5525 586.004 26.6504 586.259ZM17.0288 588.991C17.966 589.928 17.3901 591.265 16.0495 591.265C14.7158 591.265 14.1572 589.717 15.1789 588.852C15.7493 588.37 16.461 588.423 17.0288 588.991ZM25.0595 588.734C25.6338 589.036 25.7784 589.284 25.7822 589.969C25.7865 590.794 25.2787 591.265 24.387 591.265C23.1217 591.265 22.5713 589.905 23.4557 588.963C23.9291 588.46 24.4079 588.391 25.0595 588.734Z" fill="white"/>
<path fill-rule="evenodd" clip-rule="evenodd" d="M27.182 97.182L28.2426 96.1213L26.1213 94L25.0607 95.0607L20.1213 100L15.182 95.0607L14.1213 94L12 96.1213L13.0607 97.182L18 102.121L13.0607 107.061L12 108.121L14.1213 110.243L15.182 109.182L20.1213 104.243L25.0607 109.182L26.1213 110.243L28.2426 108.121L27.182 107.061L22.2426 102.121L27.182 97.182Z" fill="#3C3C3B"/>
</svg>
