<svg width="95" height="32" viewBox="0 0 95 32" fill="none" xmlns="http://www.w3.org/2000/svg">
<g clip-path="url(#clip0_335_8431)">
<path d="M6.43663 0.81663C6.80346 0.0734618 7.8632 0.073462 8.23004 0.81663L9.67589 3.74576C9.82143 4.0406 10.1026 4.24506 10.428 4.29262L13.6629 4.76545C14.4828 4.88529 14.8096 5.89313 14.216 6.47129L11.8768 8.74967C11.6409 8.97941 11.5333 9.31055 11.5889 9.63508L12.1408 12.8526C12.2809 13.6696 11.4233 14.2926 10.6897 13.9067L7.79878 12.3864C7.5074 12.2332 7.15926 12.2332 6.86788 12.3864L3.97697 13.9067C3.24334 14.2926 2.38579 13.6696 2.52591 12.8526L3.07775 9.63508C3.13341 9.31055 3.02575 8.97941 2.78988 8.74967L0.45068 6.4713C-0.142914 5.89314 0.183869 4.88529 1.00378 4.76545L4.2387 4.29262C4.56405 4.24506 4.84524 4.0406 4.99078 3.74576L6.43663 0.81663Z" fill="#F9AE00"/>
<path d="M6.43663 17.8166C6.80346 17.0735 7.8632 17.0735 8.23004 17.8166L9.67589 20.7458C9.82143 21.0406 10.1026 21.2451 10.428 21.2926L13.6629 21.7655C14.4828 21.8853 14.8096 22.8931 14.216 23.4713L11.8768 25.7497C11.6409 25.9794 11.5333 26.3105 11.5889 26.6351L12.1408 29.8526C12.2809 30.6696 11.4233 31.2926 10.6897 30.9067L7.79878 29.3864C7.5074 29.2332 7.15926 29.2332 6.86788 29.3864L3.97697 30.9067C3.24334 31.2926 2.38579 30.6696 2.52591 29.8526L3.07775 26.6351C3.13341 26.3105 3.02575 25.9794 2.78988 25.7497L0.45068 23.4713C-0.142914 22.8931 0.183869 21.8853 1.00378 21.7655L4.2387 21.2926C4.56405 21.2451 4.84524 21.0406 4.99078 20.7458L6.43663 17.8166Z" stroke="#F9AE00" stroke-linecap="round" stroke-linejoin="round"/>
<path d="M26.4366 0.81663C26.8035 0.0734618 27.8632 0.073462 28.23 0.81663L29.6759 3.74576C29.8214 4.0406 30.1026 4.24506 30.428 4.29262L33.6629 4.76545C34.4828 4.88529 34.8096 5.89313 34.216 6.47129L31.8768 8.74967C31.6409 8.97941 31.5333 9.31055 31.5889 9.63508L32.1408 12.8526C32.2809 13.6696 31.4233 14.2926 30.6897 13.9067L27.7988 12.3864C27.5074 12.2332 27.1593 12.2332 26.8679 12.3864L23.977 13.9067C23.2433 14.2926 22.3858 13.6696 22.5259 12.8526L23.0778 9.63508C23.1334 9.31055 23.0258 8.97941 22.7899 8.74967L20.4507 6.4713C19.8571 5.89314 20.1839 4.88529 21.0038 4.76545L24.2387 4.29262C24.5641 4.24506 24.8452 4.0406 24.9908 3.74576L26.4366 0.81663Z" fill="#F9AE00"/>
<path d="M26.4366 17.8166C26.8035 17.0735 27.8632 17.0735 28.23 17.8166L29.6759 20.7458C29.8214 21.0406 30.1026 21.2451 30.428 21.2926L33.6629 21.7655C34.4828 21.8853 34.8096 22.8931 34.216 23.4713L31.8768 25.7497C31.6409 25.9794 31.5333 26.3105 31.5889 26.6351L32.1408 29.8526C32.2809 30.6696 31.4233 31.2926 30.6897 30.9067L27.7988 29.3864C27.5074 29.2332 27.1593 29.2332 26.8679 29.3864L23.977 30.9067C23.2433 31.2926 22.3858 30.6696 22.5259 29.8526L23.0778 26.6351C23.1334 26.3105 23.0258 25.9794 22.7899 25.7497L20.4507 23.4713C19.8571 22.8931 20.1839 21.8853 21.0038 21.7655L24.2387 21.2926C24.5641 21.2451 24.8452 21.0406 24.9908 20.7458L26.4366 17.8166Z" stroke="#F9AE00" stroke-linecap="round" stroke-linejoin="round"/>
<path d="M46.4366 0.81663C46.8035 0.0734618 47.8632 0.073462 48.23 0.81663L49.6759 3.74576C49.8214 4.0406 50.1026 4.24506 50.428 4.29262L53.6629 4.76545C54.4828 4.88529 54.8096 5.89313 54.216 6.47129L51.8768 8.74967C51.6409 8.97941 51.5333 9.31055 51.5889 9.63508L52.1408 12.8526C52.2809 13.6696 51.4233 14.2926 50.6897 13.9067L47.7988 12.3864C47.5074 12.2332 47.1593 12.2332 46.8679 12.3864L43.977 13.9067C43.2433 14.2926 42.3858 13.6696 42.5259 12.8526L43.0778 9.63508C43.1334 9.31055 43.0258 8.97941 42.7899 8.74967L40.4507 6.4713C39.8571 5.89314 40.1839 4.88529 41.0038 4.76545L44.2387 4.29262C44.5641 4.24506 44.8452 4.0406 44.9908 3.74576L46.4366 0.81663Z" fill="#F9AE00"/>
<path d="M46.4366 17.8166C46.8035 17.0735 47.8632 17.0735 48.23 17.8166L49.6759 20.7458C49.8214 21.0406 50.1026 21.2451 50.428 21.2926L53.6629 21.7655C54.4828 21.8853 54.8096 22.8931 54.216 23.4713L51.8768 25.7497C51.6409 25.9794 51.5333 26.3105 51.5889 26.6351L52.1408 29.8526C52.2809 30.6696 51.4233 31.2926 50.6897 30.9067L47.7988 29.3864C47.5074 29.2332 47.1593 29.2332 46.8679 29.3864L43.977 30.9067C43.2433 31.2926 42.3858 30.6696 42.5259 29.8526L43.0778 26.6351C43.1334 26.3105 43.0258 25.9794 42.7899 25.7497L40.4507 23.4713C39.8571 22.8931 40.1839 21.8853 41.0038 21.7655L44.2387 21.2926C44.5641 21.2451 44.8452 21.0406 44.9908 20.7458L46.4366 17.8166Z" stroke="#F9AE00" stroke-linecap="round" stroke-linejoin="round"/>
<path d="M66.4366 0.81663C66.8035 0.0734618 67.8632 0.073462 68.2301 0.81663L69.6759 3.74576C69.8214 4.0406 70.1026 4.24506 70.428 4.29262L73.6629 4.76545C74.4828 4.88529 74.8096 5.89313 74.216 6.47129L71.8768 8.74967C71.6409 8.97941 71.5333 9.31055 71.5889 9.63508L72.1408 12.8526C72.2809 13.6696 71.4233 14.2926 70.6897 13.9067L67.7988 12.3864C67.5074 12.2332 67.1593 12.2332 66.8679 12.3864L63.977 13.9067C63.2434 14.2926 62.3858 13.6696 62.5259 12.8526L63.0778 9.63508C63.1334 9.31055 63.0258 8.97941 62.7899 8.74967L60.4507 6.4713C59.8571 5.89314 60.1839 4.88529 61.0038 4.76545L64.2387 4.29262C64.5641 4.24506 64.8453 4.0406 64.9908 3.74576L66.4366 0.81663Z" fill="#F9AE00"/>
<path d="M66.4366 17.8166C66.8035 17.0735 67.8632 17.0735 68.2301 17.8166L69.6759 20.7458C69.8214 21.0406 70.1026 21.2451 70.428 21.2926L73.6629 21.7655C74.4828 21.8853 74.8096 22.8931 74.216 23.4713L71.8768 25.7497C71.6409 25.9794 71.5333 26.3105 71.5889 26.6351L72.1408 29.8526C72.2809 30.6696 71.4233 31.2926 70.6897 30.9067L67.7988 29.3864C67.5074 29.2332 67.1593 29.2332 66.8679 29.3864L63.977 30.9067C63.2434 31.2926 62.3858 30.6696 62.5259 29.8526L63.0778 26.6351C63.1334 26.3105 63.0258 25.9794 62.7899 25.7497L60.4507 23.4713C59.8571 22.8931 60.1839 21.8853 61.0038 21.7655L64.2387 21.2926C64.5641 21.2451 64.8453 21.0406 64.9908 20.7458L66.4366 17.8166Z" stroke="#F9AE00" stroke-linecap="round" stroke-linejoin="round"/>
<path d="M86.4366 0.81663C86.8035 0.0734618 87.8632 0.073462 88.2301 0.81663L89.6759 3.74576C89.8214 4.0406 90.1026 4.24506 90.428 4.29262L93.6629 4.76545C94.4828 4.88529 94.8096 5.89313 94.216 6.47129L91.8768 8.74967C91.6409 8.97941 91.5333 9.31055 91.5889 9.63508L92.1408 12.8526C92.2809 13.6696 91.4233 14.2926 90.6897 13.9067L87.7988 12.3864C87.5074 12.2332 87.1593 12.2332 86.8679 12.3864L83.977 13.9067C83.2434 14.2926 82.3858 13.6696 82.5259 12.8526L83.0778 9.63508C83.1334 9.31055 83.0258 8.97941 82.7899 8.74967L80.4507 6.4713C79.8571 5.89314 80.1839 4.88529 81.0038 4.76545L84.2387 4.29262C84.5641 4.24506 84.8453 4.0406 84.9908 3.74576L86.4366 0.81663Z" fill="#F9AE00"/>
<path d="M86.4366 17.8166C86.8035 17.0735 87.8632 17.0735 88.2301 17.8166L89.6759 20.7458C89.8214 21.0406 90.1026 21.2451 90.428 21.2926L93.6629 21.7655C94.4828 21.8853 94.8096 22.8931 94.216 23.4713L91.8768 25.7497C91.6409 25.9794 91.5333 26.3105 91.5889 26.6351L92.1408 29.8526C92.2809 30.6696 91.4233 31.2926 90.6897 30.9067L87.7988 29.3864C87.5074 29.2332 87.1593 29.2332 86.8679 29.3864L83.977 30.9067C83.2434 31.2926 82.3858 30.6696 82.5259 29.8526L83.0778 26.6351C83.1334 26.3105 83.0258 25.9794 82.7899 25.7497L80.4507 23.4713C79.8571 22.8931 80.1839 21.8853 81.0038 21.7655L84.2387 21.2926C84.5641 21.2451 84.8453 21.0406 84.9908 20.7458L86.4366 17.8166Z" stroke="#F9AE00" stroke-linecap="round" stroke-linejoin="round"/>
</g>
<defs>
<clipPath id="clip0_335_8431">
<rect width="95" height="32" fill="white"/>
</clipPath>
</defs>
</svg>
