<svg width="170" height="170" viewBox="0 0 170 170" fill="none" xmlns="http://www.w3.org/2000/svg">
<g clip-path="url(#clip0)">
<path d="M97.4424 110.237C103.942 112.337 108.242 116.437 109.542 123.337C111.642 134.037 101.242 144.137 90.7424 140.937C87.3424 139.937 84.7424 140.037 81.4424 141.437C75.5424 144.137 67.7424 141.837 63.8424 136.937C59.6424 131.637 59.1424 124.037 62.9424 118.437C64.5424 116.137 66.4424 113.637 68.8424 112.537C71.7424 111.237 72.3424 109.837 72.3424 106.837C72.1424 91.037 72.2424 75.237 72.2424 59.337C64.3424 57.037 59.8424 52.037 59.8424 43.837C59.8424 32.537 70.1424 25.337 80.7424 29.137C82.1424 29.637 84.0424 29.537 85.3424 28.937C93.5424 24.837 103.442 27.937 107.442 36.037C111.542 44.337 108.042 53.537 99.3424 57.637C98.2424 58.137 96.8424 59.737 96.8424 60.837C96.8424 76.937 96.9424 92.937 97.0424 109.037C97.1424 109.437 97.3424 109.737 97.4424 110.237V110.237Z" stroke="#57BA4B" stroke-width="4.586" stroke-miterlimit="10"/>
</g>
<defs>
<clipPath id="clip0">
<rect width="120" height="120" fill="white" transform="translate(84.8528) rotate(45)"/>
</clipPath>
</defs>
</svg>
