<svg xmlns="http://www.w3.org/2000/svg" width="225.865" height="473.588" viewBox="0 0 225.865 473.588">
  <g id="Layer_1" transform="translate(-3 -2.387)">
    <g id="Plus" transform="translate(8403.229 -16243.176) rotate(45)">
      <rect id="Rectangle_12" width="19.4" height="2.2" transform="translate(5600.402 17376.488) rotate(90)" fill="#e64c3c"/>
      <rect id="Rectangle_13" width="2.2" height="19.4" transform="translate(5609.002 17384.988) rotate(90)" fill="#e64c3c"/>
    </g>
    <g id="Plus-2" transform="translate(8453.229 -16243.176) rotate(45)">
      <rect id="Rectangle_12-2" width="19.4" height="2.2" transform="translate(5600.402 17376.488) rotate(90)" fill="#fff"/>
      <rect id="Rectangle_13-2" width="2.2" height="19.4" transform="translate(5609.002 17384.988) rotate(90)" fill="#fff"/>
    </g>
    <g id="Plus-3" transform="translate(8503.229 -16243.176) rotate(45)">
      <rect id="Rectangle_12-3" width="19.4" height="2.2" transform="translate(5600.402 17376.488) rotate(90)"/>
      <rect id="Rectangle_13-3" width="2.2" height="19.4" transform="translate(5609.002 17384.988) rotate(90)"/>
    </g>
    <g id="Plus-4" transform="translate(7860.434 -15904.184)">
      <path id="Rectangle_12-4" d="M-7788.4,15957.3v21.2h-2.8v-21.2Z" fill="#fff"/>
      <path id="Rectangle_13-4" d="M-7779.2,15969.3h-21.2v-2.8h21.2Z" fill="#fff"/>
    </g>
    <g id="Plus-5" transform="translate(7860.434 -15852.184)">
      <path id="Rectangle_12-5" d="M-7788.4,15957.3v21.2h-2.8v-21.2Z" fill="#ec008c"/>
      <path id="Rectangle_13-5" d="M-7779.2,15969.3h-21.2v-2.8h21.2Z" fill="#ec008c"/>
    </g>
    <g id="Plus-6" transform="translate(7910.434 -15852.184)">
      <path id="Rectangle_13-6" d="M-7784.1,15969.3h-16.3v-2.8h16.3Z" fill="#ec008c"/>
    </g>
    <g id="Plus-7" transform="translate(7910.434 -15904.184)">
      <path id="Rectangle_13-7" d="M-7784.1,15969.3h-16.3v-2.8h16.3Z" fill="#fff"/>
    </g>
    <g id="Plus-8" transform="translate(7861.434 -15800.835)">
      <path id="Rectangle_12-6" d="M-7790.9,15956.2h.2a1.11,1.11,0,0,1,1.1,1.1v19.2a1.11,1.11,0,0,1-1.1,1.1h-.2a1.11,1.11,0,0,1-1.1-1.1v-19.2A1.11,1.11,0,0,1-7790.9,15956.2Z" fill="#4ba840"/>
      <path id="Rectangle_13-8" d="M-7780.1,15966.8v.2a1.11,1.11,0,0,1-1.1,1.1h-19.2a1.11,1.11,0,0,1-1.1-1.1v-.2a1.11,1.11,0,0,1,1.1-1.1h19.2A1,1,0,0,1-7780.1,15966.8Z" fill="#4ba840"/>
    </g>
    <g id="Plus-9" transform="translate(7861.434 -15751.835)">
      <path id="Rectangle_12-7" d="M-7790.9,15956.2h.2a1.11,1.11,0,0,1,1.1,1.1v19.2a1.11,1.11,0,0,1-1.1,1.1h-.2a1.11,1.11,0,0,1-1.1-1.1v-19.2A1.11,1.11,0,0,1-7790.9,15956.2Z"/>
      <path id="Rectangle_13-9" d="M-7780.1,15966.8v.2a1.11,1.11,0,0,1-1.1,1.1h-19.2a1.11,1.11,0,0,1-1.1-1.1v-.2a1.11,1.11,0,0,1,1.1-1.1h19.2A1,1,0,0,1-7780.1,15966.8Z"/>
    </g>
    <path id="Rectangle_664" d="M111.1,166.3h17.1a1.11,1.11,0,0,1,1.1,1.1h0a1.11,1.11,0,0,1-1.1,1.1H111.1a1.11,1.11,0,0,1-1.1-1.1h0A1.11,1.11,0,0,1,111.1,166.3Z" fill="#4ba840"/>
    <path id="Rectangle_664-2" d="M111.1,215.3h17.1a1.11,1.11,0,0,1,1.1,1.1h0a1.11,1.11,0,0,1-1.1,1.1H111.1a1.11,1.11,0,0,1-1.1-1.1h0A1.11,1.11,0,0,1,111.1,215.3Z"/>
    <path id="iconfinder_arrow56_216567_1_" d="M76.4,284.5l-1.7,1.7L61.2,272.6l-.9-.8.9-.8,13.5-13.6,1.7,1.7L64.1,271.8Z" fill="#ec008c"/>
    <path id="iconfinder_arrow56_216567_1_2" d="M76.4,344.5l-1.7,1.7L61.2,332.6l-.9-.8.9-.8,13.5-13.6,1.7,1.7L64.1,331.8Z" fill="#fff"/>
    <path id="iconfinder_arrow56_216567_1_3" d="M118.5,259l1.7-1.7,13.5,13.6.9.8-.9.8-13.5,13.6-1.7-1.7,12.3-12.7Z" fill="#ec008c"/>
    <path id="iconfinder_arrow56_216567_1_4" d="M118.5,319l1.7-1.7,13.5,13.6.9.8-.9.8-13.5,13.6-1.7-1.7,12.3-12.7Z" fill="#fff"/>
    <path id="iconfinder_arrow56_216567_1_5" d="M77.4,404.9a1.2,1.2,0,1,1-1.7,1.7h0L62.3,393a1.151,1.151,0,0,1,0-1.7l13.5-13.6a1.151,1.151,0,0,1,1.7,0h0a1.151,1.151,0,0,1,0,1.7L65.2,392.1Z"/>
    <path id="iconfinder_arrow56_216567_1_6" d="M77.4,473.9a1.2,1.2,0,1,1-1.7,1.7h0L62.3,462a1.151,1.151,0,0,1,0-1.7l13.5-13.6a1.151,1.151,0,0,1,1.7,0h0a1.151,1.151,0,0,1,0,1.7L65.2,461.1Z" fill="#fff"/>
    <path id="iconfinder_arrow56_216567_1_7" d="M119.3,404.9a1.151,1.151,0,0,0,0,1.7,1.217,1.217,0,0,0,1.6,0L134.3,393a1.151,1.151,0,0,0,0-1.7L121,377.7a1.217,1.217,0,0,0-1.6,0,1.151,1.151,0,0,0,0,1.7l12.3,12.7Z"/>
    <path id="iconfinder_arrow56_216567_1_8" d="M119.3,473.9a1.151,1.151,0,0,0,0,1.7,1.217,1.217,0,0,0,1.6,0L134.3,462a1.151,1.151,0,0,0,0-1.7L121,446.7a1.217,1.217,0,0,0-1.6,0,1.151,1.151,0,0,0,0,1.7l12.3,12.7Z" fill="#fff"/>
    <g id="Group_4633" transform="translate(8564 -15463.348)">
      <g id="Ellipse_13" transform="translate(51 9)">
        <circle id="Ellipse_64" data-name="Ellipse 64" cx="10" cy="10" r="10" transform="translate(-8410 15457.3)" fill="#0073c3"/>
        <circle id="Ellipse_65" data-name="Ellipse 65" cx="9.5" cy="9.5" r="9.5" transform="translate(-8409.5 15457.8)" fill="none" stroke="#0073c3" stroke-width="1"/>
      </g>
      <path id="iconfinder_check_3325079" d="M-8344.7,15473.8l-6,6-2.7-2.7" fill="none" stroke="#fff" stroke-linecap="round" stroke-linejoin="round" stroke-width="1"/>
    </g>
    <g id="Fill" transform="translate(8567 -15401)">
      <rect id="Rectangle_93" width="1" height="8" transform="translate(-8399 15462.3)" fill="#e64c3c"/>
      <rect id="Rectangle_94" width="1" height="8" transform="translate(-8397 15462.3)" fill="#e64c3c"/>
      <rect id="Rectangle_95" width="1" height="8" transform="translate(-8401 15462.3)" fill="#e64c3c"/>
      <path id="Path_11" d="M-8396,15458.8v-.6a1.9,1.9,0,0,0-1.9-1.9h-1.3a1.9,1.9,0,0,0-1.9,1.9v.6h-5v1.3h1.3v11.9a1.9,1.9,0,0,0,1.9,1.9h8.8a1.9,1.9,0,0,0,1.9-1.9h0v-11.9h1.3v-1.3Zm-3.8-.6a.645.645,0,0,1,.6-.6h1.3a.645.645,0,0,1,.6.6v.6h-2.5v-.6Zm6.3,13.8a.645.645,0,0,1-.6.6h-8.8a.645.645,0,0,1-.6-.6v-11.9h10v11.9Z" fill="#e64c3c"/>
    </g>
    <path id="iconfinder_new-24_103173" d="M221.6,60.1a8.331,8.331,0,0,0-2.8-2.8l1-1a3.139,3.139,0,0,1,2.1.7,3.322,3.322,0,0,1,.7,2.1Zm-8.2,8.3h-2.8V65.6l.3-.3a6.319,6.319,0,0,1,2.8,2.8Zm7.4-7.4-6.3,6.3a9.55,9.55,0,0,0-1.2-1.6,6.1,6.1,0,0,0-1.6-1.2l6.3-6.3A5.462,5.462,0,0,1,220.8,61Zm-11.7-2.5V69.8h11.3v-5l2.1-2.2v7.8a1.367,1.367,0,0,1-1.4,1.4H208.4a1.367,1.367,0,0,1-1.4-1.4V57.8a1.367,1.367,0,0,1,1.4-1.4h7.8l-2.1,2.1h-5Z" fill="#707070"/>
    <g id="Group_4695" transform="translate(8566.234 -15351.23)">
      <g id="zoom-in_3_" transform="translate(4.765 5.235)">
        <g id="Group_4691">
          <g id="Group_4690">
            <path id="Path_26" d="M-8395.2,15468.3l-4.2-4.2a6,6,0,0,0-.8-8.4,6,6,0,0,0-8.4.8,6,6,0,0,0,.8,8.4,6.023,6.023,0,0,0,7.6,0l4.2,4.2a.608.608,0,0,0,.8,0A.6.6,0,0,0-8395.2,15468.3Zm-5.4-4.6a4.768,4.768,0,0,1-6.8,0,4.769,4.769,0,0,1,0-6.8,4.768,4.768,0,0,1,6.8,0,4.957,4.957,0,0,1,0,6.8Z"/>
          </g>
        </g>
        <g id="Group_4693" transform="translate(2.52 2.52)">
          <g id="Group_4692">
            <path id="Path_27" d="M-8403.7,15457.2h-2.3v-2.3a.645.645,0,0,0-.6-.6.645.645,0,0,0-.6.6v2.3h-2.3a.645.645,0,0,0-.6.6.645.645,0,0,0,.6.6h2.3v2.3a.645.645,0,0,0,.6.6.645.645,0,0,0,.6-.6v-2.3h2.3a.645.645,0,0,0,.6-.6.644.644,0,0,0-.6-.6Z"/>
          </g>
        </g>
      </g>
    </g>
    <g id="Group_4695-2" transform="translate(8566.234 -15301.23)">
      <g id="zoom-in_3_2" transform="translate(4.765 5.235)">
        <g id="Group_4691-2">
          <g id="Group_4690-2">
            <path id="Path_26-2" d="M-8395.2,15468.3l-4.2-4.2a6,6,0,0,0-.8-8.4,6,6,0,0,0-8.4.8,6,6,0,0,0,.8,8.4,6.023,6.023,0,0,0,7.6,0l4.2,4.2a.608.608,0,0,0,.8,0A.6.6,0,0,0-8395.2,15468.3Zm-5.4-4.6a4.768,4.768,0,0,1-6.8,0,4.769,4.769,0,0,1,0-6.8,4.768,4.768,0,0,1,6.8,0,4.957,4.957,0,0,1,0,6.8Z" fill="#fff"/>
          </g>
        </g>
        <g id="Group_4693-2" transform="translate(2.52 2.52)">
          <g id="Group_4692-2">
            <path id="Path_27-2" d="M-8403.7,15457.2h-2.3v-2.3a.645.645,0,0,0-.6-.6.645.645,0,0,0-.6.6v2.3h-2.3a.645.645,0,0,0-.6.6.645.645,0,0,0,.6.6h2.3v2.3a.645.645,0,0,0,.6.6.645.645,0,0,0,.6-.6v-2.3h2.3a.645.645,0,0,0,.6-.6.644.644,0,0,0-.6-.6Z" fill="#fff"/>
          </g>
        </g>
      </g>
    </g>
    <g id="Group_4695-3" transform="translate(8566.234 -15195.23)">
      <g id="zoom-in_3_3" transform="translate(4.765 5.235)">
        <g id="Group_4691-3">
          <g id="Group_4690-3">
            <path id="Path_26-3" d="M-8395.2,15468.3l-4.2-4.2a6,6,0,0,0-.8-8.4,6,6,0,0,0-8.4.8,6,6,0,0,0,.8,8.4,6.023,6.023,0,0,0,7.6,0l4.2,4.2a.608.608,0,0,0,.8,0A.6.6,0,0,0-8395.2,15468.3Zm-5.4-4.6a4.768,4.768,0,0,1-6.8,0,4.769,4.769,0,0,1,0-6.8,4.768,4.768,0,0,1,6.8,0,4.957,4.957,0,0,1,0,6.8Z" fill="#fff"/>
          </g>
        </g>
      </g>
    </g>
    <g id="Group_4695-4" transform="translate(8566.234 -15250.23)">
      <g id="zoom-in_3_4" transform="translate(4.765 5.235)">
        <g id="Group_4691-4">
          <g id="Group_4690-4">
            <path id="Path_26-4" d="M-8395.2,15468.3l-4.2-4.2a6,6,0,0,0-.8-8.4,6,6,0,0,0-8.4.8,6,6,0,0,0,.8,8.4,6.023,6.023,0,0,0,7.6,0l4.2,4.2a.608.608,0,0,0,.8,0A.6.6,0,0,0-8395.2,15468.3Zm-5.4-4.6a4.768,4.768,0,0,1-6.8,0,4.769,4.769,0,0,1,0-6.8,4.768,4.768,0,0,1,6.8,0,4.957,4.957,0,0,1,0,6.8Z"/>
          </g>
        </g>
      </g>
    </g>
    <g id="Group_4695-5" transform="translate(8612.234 -15351.23)">
      <g id="zoom-in_3_5" transform="translate(4.765 5.235)">
        <g id="Group_4691-5">
          <g id="Group_4690-5">
            <path id="Path_26-5" d="M-8395.2,15468.3l-4.2-4.2a6,6,0,0,0-.8-8.4,6,6,0,0,0-8.4.8,6,6,0,0,0,.8,8.4,6.023,6.023,0,0,0,7.6,0l4.2,4.2a.608.608,0,0,0,.8,0A.6.6,0,0,0-8395.2,15468.3Zm-5.4-4.6a4.768,4.768,0,0,1-6.8,0,4.769,4.769,0,0,1,0-6.8,4.768,4.768,0,0,1,6.8,0,4.957,4.957,0,0,1,0,6.8Z"/>
          </g>
        </g>
        <g id="Group_4693-3" transform="translate(2.52 2.52)">
          <g id="Group_4692-3">
            <path id="Path_27-3" d="M-8403.7,15457.2h-2.3v-2.3a.645.645,0,0,0-.6-.6.645.645,0,0,0-.6.6v2.3h-2.3a.645.645,0,0,0-.6.6.645.645,0,0,0,.6.6h2.3v2.3a.645.645,0,0,0,.6.6.645.645,0,0,0,.6-.6v-2.3h2.3a.645.645,0,0,0,.6-.6.644.644,0,0,0-.6-.6Z"/>
          </g>
        </g>
      </g>
    </g>
    <g id="Group_4695-6" transform="translate(8612.234 -15301.23)">
      <g id="zoom-in_3_6" transform="translate(4.765 5.235)">
        <g id="Group_4691-6">
          <g id="Group_4690-6">
            <path id="Path_26-6" d="M-8395.2,15468.3l-4.2-4.2a6,6,0,0,0-.8-8.4,6,6,0,0,0-8.4.8,6,6,0,0,0,.8,8.4,6.023,6.023,0,0,0,7.6,0l4.2,4.2a.608.608,0,0,0,.8,0A.6.6,0,0,0-8395.2,15468.3Zm-5.4-4.6a4.768,4.768,0,0,1-6.8,0,4.769,4.769,0,0,1,0-6.8,4.768,4.768,0,0,1,6.8,0,4.957,4.957,0,0,1,0,6.8Z" fill="#fff"/>
          </g>
        </g>
        <g id="Group_4693-4" transform="translate(2.52 2.52)">
          <g id="Group_4692-4">
            <path id="Path_27-4" d="M-8403.7,15457.2h-2.3v-2.3a.645.645,0,0,0-.6-.6.645.645,0,0,0-.6.6v2.3h-2.3a.645.645,0,0,0-.6.6.645.645,0,0,0,.6.6h2.3v2.3a.645.645,0,0,0,.6.6.645.645,0,0,0,.6-.6v-2.3h2.3a.645.645,0,0,0,.6-.6.644.644,0,0,0-.6-.6Z" fill="#fff"/>
          </g>
        </g>
      </g>
    </g>
    <g id="Group_4695-7" transform="translate(8612.234 -15195.23)">
      <g id="zoom-in_3_7" transform="translate(4.765 5.235)">
        <g id="Group_4691-7">
          <g id="Group_4690-7">
            <path id="Path_26-7" d="M-8395.2,15468.3l-4.2-4.2a6,6,0,0,0-.8-8.4,6,6,0,0,0-8.4.8,6,6,0,0,0,.8,8.4,6.023,6.023,0,0,0,7.6,0l4.2,4.2a.608.608,0,0,0,.8,0A.6.6,0,0,0-8395.2,15468.3Zm-5.4-4.6a4.768,4.768,0,0,1-6.8,0,4.769,4.769,0,0,1,0-6.8,4.768,4.768,0,0,1,6.8,0,4.957,4.957,0,0,1,0,6.8Z" fill="#fff"/>
          </g>
        </g>
      </g>
    </g>
    <g id="Group_4695-8" transform="translate(8612.234 -15250.23)">
      <g id="zoom-in_3_8" transform="translate(4.765 5.235)">
        <g id="Group_4691-8">
          <g id="Group_4690-8">
            <path id="Path_26-8" d="M-8395.2,15468.3l-4.2-4.2a6,6,0,0,0-.8-8.4,6,6,0,0,0-8.4.8,6,6,0,0,0,.8,8.4,6.023,6.023,0,0,0,7.6,0l4.2,4.2a.608.608,0,0,0,.8,0A.6.6,0,0,0-8395.2,15468.3Zm-5.4-4.6a4.768,4.768,0,0,1-6.8,0,4.769,4.769,0,0,1,0-6.8,4.768,4.768,0,0,1,6.8,0,4.957,4.957,0,0,1,0,6.8Z"/>
          </g>
        </g>
      </g>
    </g>
    <g id="Group_4704" transform="translate(5349.5 -16652.293)">
      <g id="sale" transform="translate(3223.5 1522.945)">
        <g id="Group_4702">
          <g id="Group_4701">
            <path id="Path_28" d="M-8408.4,15454.3h4.5a1.6,1.6,0,0,1,1.1.5l6.4,6.4a1.7,1.7,0,0,1,0,2.3h0l-4.5,4.5a1.7,1.7,0,0,1-2.3,0h0l-6.4-6.4a1.607,1.607,0,0,1-.5-1.1v-4.5A1.829,1.829,0,0,1-8408.4,15454.3Zm2.2,5.5a1.579,1.579,0,0,0,1.6-1.6,1.58,1.58,0,0,0-1.6-1.6,1.58,1.58,0,0,0-1.6,1.6A1.58,1.58,0,0,0-8406.2,15459.8Z" fill="red"/>
          </g>
        </g>
      </g>
    </g>
    <g id="Group_4704-2" transform="translate(5397.5 -16652.293)">
      <g id="sale-2" transform="translate(3223.5 1522.945)">
        <g id="Group_4702-2">
          <g id="Group_4701-2">
            <path id="Path_28-2" d="M-8408.4,15454.3h4.5a1.6,1.6,0,0,1,1.1.5l6.4,6.4a1.7,1.7,0,0,1,0,2.3h0l-4.5,4.5a1.7,1.7,0,0,1-2.3,0h0l-6.4-6.4a1.607,1.607,0,0,1-.5-1.1v-4.5A1.829,1.829,0,0,1-8408.4,15454.3Zm2.2,5.5a1.579,1.579,0,0,0,1.6-1.6,1.58,1.58,0,0,0-1.6-1.6,1.58,1.58,0,0,0-1.6,1.6A1.58,1.58,0,0,0-8406.2,15459.8Z"/>
          </g>
        </g>
      </g>
    </g>
    <path id="Path_1" d="M165.4,388.3l4.6,4.6,4.6-4.6,1.4,1.4-6.1,6.1-6.1-6.1Z"/>
    <path id="Path_1-2" d="M213.4,388.3l4.6,4.6,4.6-4.6,1.4,1.4-6.1,6.1-6.1-6.1Z" fill="#fff"/>
    <path id="iconfinder_shop-01_186387" d="M178.3,463.5l2.5-7.4a.616.616,0,0,0-.1-.7,1.489,1.489,0,0,0-.9-.4h-14l-.4-1.9a1.063,1.063,0,0,0-1-.9h-3.9c-.4,0-.6.4-.6.8v1c0,.4.2.3.6.3h3.3l2.5,10.9a2.716,2.716,0,0,0-.6,1.7,2.348,2.348,0,0,0,2.3,2.4,2.691,2.691,0,0,0,2.3-1.9h5a2.554,2.554,0,0,0,2.3,2,2.411,2.411,0,0,0,.2-4.8h-.2a1.614,1.614,0,0,0-1.7.8h-6.1a1.965,1.965,0,0,0-1.7-.9l-.1-.4h9.3C178.1,464,178.2,463.9,178.3,463.5Zm-11.1,3.6a.6.6,0,1,0,.6.6.645.645,0,0,0-.6-.6Zm10.5.9a.9.9,0,1,1,.9-.9.713.713,0,0,1-.3.6A.864.864,0,0,1,177.7,468Z"/>
    <path id="iconfinder_shop-01_186387-2" d="M226.3,463.5l2.5-7.4a.616.616,0,0,0-.1-.7,1.489,1.489,0,0,0-.9-.4h-14l-.4-1.9a1.063,1.063,0,0,0-1-.9h-3.9c-.4,0-.6.4-.6.8v1c0,.4.2.3.6.3h3.3l2.5,10.9a2.716,2.716,0,0,0-.6,1.7,2.348,2.348,0,0,0,2.3,2.4,2.691,2.691,0,0,0,2.3-1.9h5a2.554,2.554,0,0,0,2.3,2,2.411,2.411,0,0,0,.2-4.8h-.2a1.614,1.614,0,0,0-1.7.8h-6.1a1.965,1.965,0,0,0-1.7-.9l-.1-.4h9.3C226.1,464,226.2,463.9,226.3,463.5Zm-11.1,3.6a.6.6,0,1,0,.6.6.645.645,0,0,0-.6-.6Zm10.5.9a.9.9,0,1,1,.9-.9.713.713,0,0,1-.3.6A.864.864,0,0,1,225.7,468Z" fill="#fff"/>
    <path id="foursquare-check-in" d="M3,116.4l8.9,8.9L29,108.2l-2.5-1.9L11.9,121l-6.5-6.5Z"/>
    <path id="foursquare-check-in-2" d="M3,64.4l8.9,8.9L29,56.2l-2.5-1.9L11.9,69,5.4,62.5Z" fill="#fff"/>
    <g id="Fill-3" transform="translate(8416 -15193)">
      <rect id="Rectangle_93-3" width="1" height="8" transform="translate(-8399 15462.3)" fill="#101010"/>
      <rect id="Rectangle_94-3" width="1" height="8" transform="translate(-8397 15462.3)" fill="#101010"/>
      <rect id="Rectangle_95-3" width="1" height="8" transform="translate(-8401 15462.3)" fill="#101010"/>
      <path id="Path_11-3" d="M-8396,15458.8v-.6a1.9,1.9,0,0,0-1.9-1.9h-1.3a1.9,1.9,0,0,0-1.9,1.9v.6h-5v1.3h1.3l1.4,12.6a1.968,1.968,0,0,0,1.9,1.9h5c1,0,2.3-.8,2.3-1.9l1.9-12.6h1.3v-1.3Zm-3.8-.6a.645.645,0,0,1,.6-.6h1.3a.645.645,0,0,1,.6.6v.6h-2.5v-.6Zm4.4,14.5c0,.3-.7.6-1.1.6h-5l-.5-.2-.2-.4-1.4-12.6h10Z" fill="#101010"/>
    </g>
    <g id="Group_80" transform="translate(3 53)">
      <path id="Rectangle_12-8" d="M30,104.6l.2.2a1.215,1.215,0,0,1,0,1.6L13.8,122.8a1.215,1.215,0,0,1-1.6,0l-.2-.2a1.215,1.215,0,0,1,0-1.6l16.4-16.4A1.041,1.041,0,0,1,30,104.6Z" fill="#fff"/>
      <path id="Rectangle_12-9" d="M3.5,113.2l.2-.2a1.215,1.215,0,0,1,1.6,0h0l7.9,7.9a1.215,1.215,0,0,1,0,1.6h0l.4.3a1.822,1.822,0,0,1-2.1-.2l-7.9-7.9A1,1,0,0,1,3.5,113.2Z" fill="#fff"/>
    </g>
    <g id="Group_81" transform="translate(3 100)">
      <path id="Rectangle_12-10" d="M30,104.6l.2.2a1.215,1.215,0,0,1,0,1.6L13.8,122.8a1.215,1.215,0,0,1-1.6,0l-.2-.2a1.215,1.215,0,0,1,0-1.6l16.4-16.4A1.041,1.041,0,0,1,30,104.6Z"/>
      <path id="Rectangle_12-11" d="M3.5,113.2l.2-.2a1.215,1.215,0,0,1,1.6,0h0l7.9,7.9a1.215,1.215,0,0,1,0,1.6h0l.4.3a1.822,1.822,0,0,1-2.1-.2l-7.9-7.9A1,1,0,0,1,3.5,113.2Z"/>
    </g>
    <g id="Ellipse_5" transform="translate(-2066 -1030)">
      <circle id="Ellipse_66" data-name="Ellipse 66" cx="15" cy="15" r="15" transform="translate(2069.7 1473.2)" fill="none" stroke="#000" stroke-miterlimit="10" stroke-width="1"/>
      <circle id="Ellipse_67" data-name="Ellipse 67" cx="14" cy="14" r="14" transform="translate(2070.7 1474.2)" fill="none" stroke="#000" stroke-miterlimit="10" stroke-width="1"/>
    </g>
    <g id="Group_53" transform="translate(0 -65)">
      <g id="Ellipse_5-2" transform="translate(-2066 -1030)">
        <circle id="Ellipse_68" data-name="Ellipse 68" cx="15" cy="15" r="15" transform="translate(2070 1475.3)" fill="none"/>
        <circle id="Ellipse_69" data-name="Ellipse 69" cx="14.5" cy="14.5" r="14.5" transform="translate(2070.5 1475.8)" fill="none" stroke="#ff336d" stroke-width="1"/>
      </g>
      <g id="Path_38" transform="translate(-2062 -1026)">
        <path id="Path_38-2" d="M2081,1496.8a10.5,10.5,0,1,1,10.5-10.5A10.5,10.5,0,0,1,2081,1496.8Z" fill="#ff336d"/>
        <path id="Path_39" d="M2081,1476.3a10,10,0,1,0,10,10,10.029,10.029,0,0,0-10-10m0-1a11,11,0,1,1-11,11A10.968,10.968,0,0,1,2081,1475.3Z" fill="#ff336d"/>
      </g>
      <path id="iconfinder_arrow56_216567_1_9" d="M15.5,454.2l.8-.8,6.5,6.6.4.4-.4.4-6.5,6.6-.8-.8,6-6.2Z" fill="#fff"/>
    </g>
    <g id="Group_4952" data-name="Group 4952">
      <rect id="Rectangle_342" data-name="Rectangle 342" width="1" height="8" transform="translate(18.5 328.5)" fill="#fff"/>
      <rect id="Rectangle_343" data-name="Rectangle 343" width="1" height="8" transform="translate(20.5 328.5)" fill="#fff"/>
      <rect id="Rectangle_344" data-name="Rectangle 344" width="1" height="8" transform="translate(16.5 328.5)" fill="#fff"/>
      <path id="Path_150" data-name="Path 150" d="M21.5,325v-.6a1.9,1.9,0,0,0-1.9-1.9H18.3a1.9,1.9,0,0,0-1.9,1.9v.6h-5v1.3h1.3v11.9a1.9,1.9,0,0,0,1.9,1.9h8.8a1.9,1.9,0,0,0,1.9-1.9h0V326.3h1.3V325Zm-3.8-.6a.645.645,0,0,1,.6-.6h1.3a.645.645,0,0,1,.6.6v.6H17.7ZM24,338.1a.645.645,0,0,1-.6.6H14.6a.645.645,0,0,1-.6-.6V326.2H24Z" fill="#fff"/>
    </g>
    <g id="Group_4953" data-name="Group 4953">
      <rect id="Rectangle_345" data-name="Rectangle 345" width="2.6" height="11.5" transform="translate(17.4 454.8)"/>
      <circle id="Ellipse_70" data-name="Ellipse 70" cx="1.6" cy="1.6" r="1.6" transform="translate(17.1 450)"/>
    </g>
  </g>
</svg>
