<?xml version="1.0" encoding="utf-8"?>
<!-- Generator: Adobe Illustrator 24.2.0, SVG Export Plug-In . SVG Version: 6.00 Build 0)  -->
<svg version="1.1" xmlns="http://www.w3.org/2000/svg" xmlns:xlink="http://www.w3.org/1999/xlink" x="0px" y="0px"
	 viewBox="0 0 228.9 475.9" style="enable-background:new 0 0 228.9 475.9;" xml:space="preserve">
<style type="text/css">
	.st0{display:none;}
	.st1{fill:#0C0808;stroke:#000000;stroke-miterlimit:10;}
	.st2{display:inline;fill:#848383;stroke:#000000;stroke-miterlimit:10;}
	.st3{fill:#E64C3C;}
	.st4{fill:#FFFFFF;}
	.st5{fill:#EC008C;}
	.st6{fill:#0073C3;}
	.st7{fill:none;stroke:#0073C3;}
	.st8{fill:none;stroke:#FFFFFF;stroke-linecap:round;stroke-linejoin:round;}
	.st9{fill:#707070;}
	.st10{fill:#FF0000;}
	.st11{fill:#101010;}
	.st12{fill:none;stroke:#000000;stroke-miterlimit:10;}
	.st13{fill:none;}
	.st14{fill:none;stroke:#FF336D;}
	.st15{fill:#FF336D;}
</style>
<g id="Layer_2" class="st0">
	<rect x="-39" y="-32" class="st1" width="320" height="538"/>
	<rect x="-5.9" y="-7.8" class="st2" width="238.7" height="489.8"/>
</g>
<g id="Layer_1">
	<g id="Plus" transform="translate(8403.229 -16243.176) rotate(45)">
		
			<rect id="Rectangle_12" x="5589.7" y="17385.1" transform="matrix(2.535182e-06 1 -1 2.535182e-06 22985.502 11786.7871)" class="st3" width="19.4" height="2.2"/>
		
			<rect id="Rectangle_13" x="5598.2" y="17376.5" transform="matrix(2.535182e-06 1 -1 2.535182e-06 22985.502 11786.7871)" class="st3" width="2.2" height="19.4"/>
	</g>
	<g id="Plus-2" transform="translate(8453.229 -16243.176) rotate(45)">
		
			<rect id="Rectangle_12-2" x="5589.7" y="17385.1" transform="matrix(2.535182e-06 1 -1 2.535182e-06 22985.502 11786.7871)" class="st4" width="19.4" height="2.2"/>
		
			<rect id="Rectangle_13-2" x="5598.2" y="17376.5" transform="matrix(2.535182e-06 1 -1 2.535182e-06 22985.502 11786.7871)" class="st4" width="2.2" height="19.4"/>
	</g>
	<g id="Plus-3" transform="translate(8503.229 -16243.176) rotate(45)">
		
			<rect id="Rectangle_12-3" x="5589.7" y="17385.1" transform="matrix(2.535182e-06 1 -1 2.535182e-06 22985.502 11786.7871)" width="19.4" height="2.2"/>
		
			<rect id="Rectangle_13-3" x="5598.2" y="17376.5" transform="matrix(2.535182e-06 1 -1 2.535182e-06 22985.502 11786.7871)" width="2.2" height="19.4"/>
	</g>
	<g id="Plus-4" transform="translate(7860.434 -15904.184)">
		<path id="Rectangle_12-4" class="st4" d="M-7788.4,15957.3v21.2h-2.8v-21.2H-7788.4z"/>
		<path id="Rectangle_13-4" class="st4" d="M-7779.2,15969.3h-21.2v-2.8h21.2V15969.3z"/>
	</g>
	<g id="Plus-5" transform="translate(7860.434 -15852.184)">
		<path id="Rectangle_12-5" class="st5" d="M-7788.4,15957.3v21.2h-2.8v-21.2H-7788.4z"/>
		<path id="Rectangle_13-5" class="st5" d="M-7779.2,15969.3h-21.2v-2.8h21.2V15969.3z"/>
	</g>
	<g id="Plus-6" transform="translate(7910.434 -15852.184)">
		<path id="Rectangle_13-6" class="st5" d="M-7784.1,15969.3h-16.3v-2.8h16.3V15969.3z"/>
	</g>
	<g id="Plus-7" transform="translate(7910.434 -15904.184)">
		<path id="Rectangle_13-7" class="st4" d="M-7784.1,15969.3h-16.3v-2.8h16.3V15969.3z"/>
	</g>
	<g id="Plus-8" transform="translate(7861.434 -15800.835)">
		<path id="Rectangle_12-6" class="st4" d="M-7790.9,15956.2h0.2c0.6,0,1.1,0.5,1.1,1.1v19.2c0,0.6-0.5,1.1-1.1,1.1h-0.2
			c-0.6,0-1.1-0.5-1.1-1.1v-19.2C-7792,15956.7-7791.5,15956.2-7790.9,15956.2z"/>
		<path id="Rectangle_13-8" class="st4" d="M-7780.1,15966.8v0.2c0,0.6-0.5,1.1-1.1,1.1h-19.2c-0.6,0-1.1-0.5-1.1-1.1v-0.2
			c0-0.6,0.5-1.1,1.1-1.1h19.2C-7780.6,15965.6-7780.1,15966.1-7780.1,15966.8z"/>
	</g>
	<g id="Plus-9" transform="translate(7861.434 -15751.835)">
		<path id="Rectangle_12-7" d="M-7790.9,15956.2h0.2c0.6,0,1.1,0.5,1.1,1.1v19.2c0,0.6-0.5,1.1-1.1,1.1h-0.2c-0.6,0-1.1-0.5-1.1-1.1
			v-19.2C-7792,15956.7-7791.5,15956.2-7790.9,15956.2z"/>
		<path id="Rectangle_13-9" d="M-7780.1,15966.8v0.2c0,0.6-0.5,1.1-1.1,1.1h-19.2c-0.6,0-1.1-0.5-1.1-1.1v-0.2
			c0-0.6,0.5-1.1,1.1-1.1h19.2C-7780.6,15965.6-7780.1,15966.1-7780.1,15966.8z"/>
	</g>
	<path id="Rectangle_664" class="st4" d="M111.1,166.3h17.1c0.6,0,1.1,0.5,1.1,1.1l0,0c0,0.6-0.5,1.1-1.1,1.1h-17.1
		c-0.6,0-1.1-0.5-1.1-1.1l0,0C110,166.8,110.5,166.3,111.1,166.3z"/>
	<path id="Rectangle_664-2" d="M111.1,215.3h17.1c0.6,0,1.1,0.5,1.1,1.1l0,0c0,0.6-0.5,1.1-1.1,1.1h-17.1c-0.6,0-1.1-0.5-1.1-1.1
		l0,0C110,215.8,110.5,215.3,111.1,215.3z"/>
	<path id="iconfinder_arrow56_216567_1_" class="st5" d="M76.4,284.5l-1.7,1.7l-13.5-13.6l-0.9-0.8l0.9-0.8l13.5-13.6l1.7,1.7
		l-12.3,12.7L76.4,284.5z"/>
	<path id="iconfinder_arrow56_216567_1_2" class="st4" d="M76.4,344.5l-1.7,1.7l-13.5-13.6l-0.9-0.8l0.9-0.8l13.5-13.6l1.7,1.7
		l-12.3,12.7L76.4,344.5z"/>
	<path id="iconfinder_arrow56_216567_1_3" class="st5" d="M118.5,259l1.7-1.7l13.5,13.6l0.9,0.8l-0.9,0.8l-13.5,13.6l-1.7-1.7
		l12.3-12.7L118.5,259z"/>
	<path id="iconfinder_arrow56_216567_1_4" class="st4" d="M118.5,319l1.7-1.7l13.5,13.6l0.9,0.8l-0.9,0.8l-13.5,13.6l-1.7-1.7
		l12.3-12.7L118.5,319z"/>
	<path id="iconfinder_arrow56_216567_1_5" d="M77.4,404.9c0.5,0.5,0.5,1.2,0,1.7c-0.5,0.5-1.2,0.5-1.7,0c0,0,0,0,0,0L62.3,393
		c-0.5-0.5-0.5-1.2,0-1.7l13.5-13.6c0.5-0.5,1.2-0.5,1.7,0c0,0,0,0,0,0c0.5,0.5,0.5,1.2,0,1.7l-12.3,12.7L77.4,404.9z"/>
	<path id="iconfinder_arrow56_216567_1_6" class="st4" d="M77.4,473.9c0.5,0.5,0.5,1.2,0,1.7c-0.5,0.5-1.2,0.5-1.7,0c0,0,0,0,0,0
		L62.3,462c-0.5-0.5-0.5-1.2,0-1.7l13.5-13.6c0.5-0.5,1.2-0.5,1.7,0c0,0,0,0,0,0c0.5,0.5,0.5,1.2,0,1.7l-12.3,12.7L77.4,473.9z"/>
	<path id="iconfinder_arrow56_216567_1_7" d="M119.3,404.9c-0.5,0.5-0.5,1.2,0,1.7c0.2,0.2,0.5,0.3,0.8,0.3c0.3,0,0.6-0.1,0.8-0.3
		l13.4-13.6c0.5-0.5,0.5-1.2,0-1.7L121,377.7c-0.2-0.2-0.5-0.3-0.8-0.3c-0.3,0-0.6,0.1-0.8,0.3c-0.5,0.5-0.5,1.2,0,1.7l12.3,12.7
		L119.3,404.9z"/>
	<path id="iconfinder_arrow56_216567_1_8" class="st4" d="M119.3,473.9c-0.5,0.5-0.5,1.2,0,1.7c0.2,0.2,0.5,0.3,0.8,0.3
		c0.3,0,0.6-0.1,0.8-0.3l13.4-13.6c0.5-0.5,0.5-1.2,0-1.7L121,446.7c-0.2-0.2-0.5-0.3-0.8-0.3c-0.3,0-0.6,0.1-0.8,0.3
		c-0.5,0.5-0.5,1.2,0,1.7l12.3,12.7L119.3,473.9z"/>
	<g id="Group_4633" transform="translate(8564 -15463.348)">
		<g id="Ellipse_13" transform="translate(51 9)">
			<circle class="st6" cx="-8400" cy="15467.3" r="10"/>
			<circle class="st7" cx="-8400" cy="15467.3" r="9.5"/>
		</g>
		<path id="iconfinder_check_3325079" class="st8" d="M-8344.7,15473.8l-6,6l-2.7-2.7"/>
	</g>
	<g id="Fill" transform="translate(8567 -15401)">
		<rect id="Rectangle_93" x="-8399" y="15462.3" class="st3" width="1" height="8"/>
		<rect id="Rectangle_94" x="-8397" y="15462.3" class="st3" width="1" height="8"/>
		<rect id="Rectangle_95" x="-8401" y="15462.3" class="st3" width="1" height="8"/>
		<path id="Path_11" class="st3" d="M-8396,15458.8v-0.6c0-1-0.8-1.9-1.9-1.9h-1.3c-1,0-1.9,0.8-1.9,1.9v0.6h-5v1.3h1.3v11.9
			c0,1,0.8,1.9,1.9,1.9l0,0h8.8c1,0,1.9-0.8,1.9-1.9l0,0v-11.9h1.3v-1.3H-8396z M-8399.8,15458.2c0-0.3,0.3-0.6,0.6-0.6h1.3
			c0.3,0,0.6,0.3,0.6,0.6v0.6h-2.5V15458.2z M-8393.5,15472c0,0.3-0.3,0.6-0.6,0.6h-8.8c-0.3,0-0.6-0.3-0.6-0.6v-11.9h10V15472z"/>
	</g>
	<path id="iconfinder_new-24_103173" class="st9" d="M221.6,60.1c-0.7-1.2-1.7-2.1-2.8-2.8l1-1c0.8,0,1.5,0.2,2.1,0.7
		c0.5,0.6,0.7,1.4,0.7,2.1L221.6,60.1z M213.4,68.4h-2.8v-2.8l0.3-0.3c1.2,0.6,2.2,1.6,2.8,2.8L213.4,68.4z M220.8,61l-6.3,6.3
		c-0.3-0.6-0.8-1.1-1.2-1.6c-0.5-0.5-1-0.9-1.6-1.2l6.3-6.3C219.2,58.7,220.2,59.7,220.8,61z M209.1,58.5v11.3h11.3v-5l2.1-2.2v7.8
		c0,0.8-0.6,1.4-1.4,1.4h-12.7c-0.8,0-1.4-0.6-1.4-1.4V57.8c0-0.8,0.6-1.4,1.4-1.4h7.8l-2.1,2.1H209.1z"/>
	<g id="Group_4695" transform="translate(8566.234 -15351.23)">
		<g id="zoom-in_3_" transform="translate(4.765 5.235)">
			<g id="Group_4691">
				<g id="Group_4690">
					<path id="Path_26" d="M-8395.2,15468.3l-4.2-4.2c2.1-2.6,1.7-6.3-0.8-8.4c-2.6-2.1-6.3-1.7-8.4,0.8c-2.1,2.6-1.7,6.3,0.8,8.4
						c2.2,1.8,5.4,1.8,7.6,0l4.2,4.2c0.2,0.2,0.6,0.2,0.8,0C-8395,15468.9-8395,15468.6-8395.2,15468.3z M-8400.6,15463.7
						c-1.9,1.9-4.9,1.9-6.8,0s-1.9-4.9,0-6.8c1.9-1.9,4.9-1.9,6.8,0C-8398.8,15458.8-8398.8,15461.8-8400.6,15463.7
						C-8400.6,15463.7-8400.6,15463.7-8400.6,15463.7z"/>
				</g>
			</g>
			<g id="Group_4693" transform="translate(2.52 2.52)">
				<g id="Group_4692">
					<path id="Path_27" d="M-8403.7,15457.2h-2.3v-2.3c0-0.3-0.3-0.6-0.6-0.6c-0.3,0-0.6,0.3-0.6,0.6v2.3h-2.3
						c-0.3,0-0.6,0.3-0.6,0.6c0,0.3,0.3,0.6,0.6,0.6h2.3v2.3c0,0.3,0.3,0.6,0.6,0.6s0.6-0.3,0.6-0.6v-2.3h2.3c0.3,0,0.6-0.3,0.6-0.6
						C-8403.1,15457.5-8403.4,15457.2-8403.7,15457.2L-8403.7,15457.2z"/>
				</g>
			</g>
		</g>
	</g>
	<g id="Group_4695-2" transform="translate(8566.234 -15301.23)">
		<g id="zoom-in_3_2" transform="translate(4.765 5.235)">
			<g id="Group_4691-2">
				<g id="Group_4690-2">
					<path id="Path_26-2" class="st4" d="M-8395.2,15468.3l-4.2-4.2c2.1-2.6,1.7-6.3-0.8-8.4c-2.6-2.1-6.3-1.7-8.4,0.8
						c-2.1,2.6-1.7,6.3,0.8,8.4c2.2,1.8,5.4,1.8,7.6,0l4.2,4.2c0.2,0.2,0.6,0.2,0.8,0C-8395,15468.9-8395,15468.6-8395.2,15468.3z
						 M-8400.6,15463.7c-1.9,1.9-4.9,1.9-6.8,0s-1.9-4.9,0-6.8c1.9-1.9,4.9-1.9,6.8,0
						C-8398.8,15458.8-8398.8,15461.8-8400.6,15463.7C-8400.6,15463.7-8400.6,15463.7-8400.6,15463.7z"/>
				</g>
			</g>
			<g id="Group_4693-2" transform="translate(2.52 2.52)">
				<g id="Group_4692-2">
					<path id="Path_27-2" class="st4" d="M-8403.7,15457.2h-2.3v-2.3c0-0.3-0.3-0.6-0.6-0.6c-0.3,0-0.6,0.3-0.6,0.6v2.3h-2.3
						c-0.3,0-0.6,0.3-0.6,0.6c0,0.3,0.3,0.6,0.6,0.6h2.3v2.3c0,0.3,0.3,0.6,0.6,0.6s0.6-0.3,0.6-0.6v-2.3h2.3c0.3,0,0.6-0.3,0.6-0.6
						C-8403.1,15457.5-8403.4,15457.2-8403.7,15457.2L-8403.7,15457.2z"/>
				</g>
			</g>
		</g>
	</g>
	<g id="Group_4695-3" transform="translate(8566.234 -15195.23)">
		<g id="zoom-in_3_3" transform="translate(4.765 5.235)">
			<g id="Group_4691-3">
				<g id="Group_4690-3">
					<path id="Path_26-3" class="st4" d="M-8395.2,15468.3l-4.2-4.2c2.1-2.6,1.7-6.3-0.8-8.4c-2.6-2.1-6.3-1.7-8.4,0.8
						c-2.1,2.6-1.7,6.3,0.8,8.4c2.2,1.8,5.4,1.8,7.6,0l4.2,4.2c0.2,0.2,0.6,0.2,0.8,0C-8395,15468.9-8395,15468.6-8395.2,15468.3z
						 M-8400.6,15463.7c-1.9,1.9-4.9,1.9-6.8,0s-1.9-4.9,0-6.8c1.9-1.9,4.9-1.9,6.8,0
						C-8398.8,15458.8-8398.8,15461.8-8400.6,15463.7C-8400.6,15463.7-8400.6,15463.7-8400.6,15463.7z"/>
				</g>
			</g>
		</g>
	</g>
	<g id="Group_4695-4" transform="translate(8566.234 -15250.23)">
		<g id="zoom-in_3_4" transform="translate(4.765 5.235)">
			<g id="Group_4691-4">
				<g id="Group_4690-4">
					<path id="Path_26-4" d="M-8395.2,15468.3l-4.2-4.2c2.1-2.6,1.7-6.3-0.8-8.4c-2.6-2.1-6.3-1.7-8.4,0.8c-2.1,2.6-1.7,6.3,0.8,8.4
						c2.2,1.8,5.4,1.8,7.6,0l4.2,4.2c0.2,0.2,0.6,0.2,0.8,0C-8395,15468.9-8395,15468.6-8395.2,15468.3z M-8400.6,15463.7
						c-1.9,1.9-4.9,1.9-6.8,0s-1.9-4.9,0-6.8c1.9-1.9,4.9-1.9,6.8,0C-8398.8,15458.8-8398.8,15461.8-8400.6,15463.7
						C-8400.6,15463.7-8400.6,15463.7-8400.6,15463.7z"/>
				</g>
			</g>
		</g>
	</g>
	<g id="Group_4695-5" transform="translate(8612.234 -15351.23)">
		<g id="zoom-in_3_5" transform="translate(4.765 5.235)">
			<g id="Group_4691-5">
				<g id="Group_4690-5">
					<path id="Path_26-5" d="M-8395.2,15468.3l-4.2-4.2c2.1-2.6,1.7-6.3-0.8-8.4c-2.6-2.1-6.3-1.7-8.4,0.8c-2.1,2.6-1.7,6.3,0.8,8.4
						c2.2,1.8,5.4,1.8,7.6,0l4.2,4.2c0.2,0.2,0.6,0.2,0.8,0C-8395,15468.9-8395,15468.6-8395.2,15468.3z M-8400.6,15463.7
						c-1.9,1.9-4.9,1.9-6.8,0s-1.9-4.9,0-6.8c1.9-1.9,4.9-1.9,6.8,0C-8398.8,15458.8-8398.8,15461.8-8400.6,15463.7
						C-8400.6,15463.7-8400.6,15463.7-8400.6,15463.7z"/>
				</g>
			</g>
			<g id="Group_4693-3" transform="translate(2.52 2.52)">
				<g id="Group_4692-3">
					<path id="Path_27-3" d="M-8403.7,15457.2h-2.3v-2.3c0-0.3-0.3-0.6-0.6-0.6c-0.3,0-0.6,0.3-0.6,0.6v2.3h-2.3
						c-0.3,0-0.6,0.3-0.6,0.6c0,0.3,0.3,0.6,0.6,0.6h2.3v2.3c0,0.3,0.3,0.6,0.6,0.6s0.6-0.3,0.6-0.6v-2.3h2.3c0.3,0,0.6-0.3,0.6-0.6
						C-8403.1,15457.5-8403.4,15457.2-8403.7,15457.2L-8403.7,15457.2z"/>
				</g>
			</g>
		</g>
	</g>
	<g id="Group_4695-6" transform="translate(8612.234 -15301.23)">
		<g id="zoom-in_3_6" transform="translate(4.765 5.235)">
			<g id="Group_4691-6">
				<g id="Group_4690-6">
					<path id="Path_26-6" class="st4" d="M-8395.2,15468.3l-4.2-4.2c2.1-2.6,1.7-6.3-0.8-8.4c-2.6-2.1-6.3-1.7-8.4,0.8
						c-2.1,2.6-1.7,6.3,0.8,8.4c2.2,1.8,5.4,1.8,7.6,0l4.2,4.2c0.2,0.2,0.6,0.2,0.8,0C-8395,15468.9-8395,15468.6-8395.2,15468.3z
						 M-8400.6,15463.7c-1.9,1.9-4.9,1.9-6.8,0s-1.9-4.9,0-6.8c1.9-1.9,4.9-1.9,6.8,0
						C-8398.8,15458.8-8398.8,15461.8-8400.6,15463.7C-8400.6,15463.7-8400.6,15463.7-8400.6,15463.7z"/>
				</g>
			</g>
			<g id="Group_4693-4" transform="translate(2.52 2.52)">
				<g id="Group_4692-4">
					<path id="Path_27-4" class="st4" d="M-8403.7,15457.2h-2.3v-2.3c0-0.3-0.3-0.6-0.6-0.6c-0.3,0-0.6,0.3-0.6,0.6v2.3h-2.3
						c-0.3,0-0.6,0.3-0.6,0.6c0,0.3,0.3,0.6,0.6,0.6h2.3v2.3c0,0.3,0.3,0.6,0.6,0.6s0.6-0.3,0.6-0.6v-2.3h2.3c0.3,0,0.6-0.3,0.6-0.6
						C-8403.1,15457.5-8403.4,15457.2-8403.7,15457.2L-8403.7,15457.2z"/>
				</g>
			</g>
		</g>
	</g>
	<g id="Group_4695-7" transform="translate(8612.234 -15195.23)">
		<g id="zoom-in_3_7" transform="translate(4.765 5.235)">
			<g id="Group_4691-7">
				<g id="Group_4690-7">
					<path id="Path_26-7" class="st4" d="M-8395.2,15468.3l-4.2-4.2c2.1-2.6,1.7-6.3-0.8-8.4c-2.6-2.1-6.3-1.7-8.4,0.8
						c-2.1,2.6-1.7,6.3,0.8,8.4c2.2,1.8,5.4,1.8,7.6,0l4.2,4.2c0.2,0.2,0.6,0.2,0.8,0C-8395,15468.9-8395,15468.6-8395.2,15468.3z
						 M-8400.6,15463.7c-1.9,1.9-4.9,1.9-6.8,0s-1.9-4.9,0-6.8c1.9-1.9,4.9-1.9,6.8,0
						C-8398.8,15458.8-8398.8,15461.8-8400.6,15463.7C-8400.6,15463.7-8400.6,15463.7-8400.6,15463.7z"/>
				</g>
			</g>
		</g>
	</g>
	<g id="Group_4695-8" transform="translate(8612.234 -15250.23)">
		<g id="zoom-in_3_8" transform="translate(4.765 5.235)">
			<g id="Group_4691-8">
				<g id="Group_4690-8">
					<path id="Path_26-8" d="M-8395.2,15468.3l-4.2-4.2c2.1-2.6,1.7-6.3-0.8-8.4c-2.6-2.1-6.3-1.7-8.4,0.8c-2.1,2.6-1.7,6.3,0.8,8.4
						c2.2,1.8,5.4,1.8,7.6,0l4.2,4.2c0.2,0.2,0.6,0.2,0.8,0C-8395,15468.9-8395,15468.6-8395.2,15468.3z M-8400.6,15463.7
						c-1.9,1.9-4.9,1.9-6.8,0s-1.9-4.9,0-6.8c1.9-1.9,4.9-1.9,6.8,0C-8398.8,15458.8-8398.8,15461.8-8400.6,15463.7
						C-8400.6,15463.7-8400.6,15463.7-8400.6,15463.7z"/>
				</g>
			</g>
		</g>
	</g>
	<g id="Group_4704" transform="translate(5349.5 -16652.293)">
		<g id="sale" transform="translate(3223.5 1522.945)">
			<g id="Group_4702">
				<g id="Group_4701">
					<path id="Path_28" class="st10" d="M-8408.4,15454.3h4.5c0.4,0,0.8,0.2,1.1,0.5l6.4,6.4c0.6,0.6,0.6,1.7,0,2.3c0,0,0,0,0,0
						l-4.5,4.5c-0.6,0.6-1.7,0.6-2.3,0c0,0,0,0,0,0l-6.4-6.4c-0.3-0.3-0.5-0.7-0.5-1.1v-4.5
						C-8410,15455.1-8409.3,15454.3-8408.4,15454.3z M-8406.2,15459.8c0.9,0,1.6-0.7,1.6-1.6s-0.7-1.6-1.6-1.6s-1.6,0.7-1.6,1.6
						S-8407.1,15459.8-8406.2,15459.8z"/>
				</g>
			</g>
		</g>
	</g>
	<g id="Group_4704-2" transform="translate(5397.5 -16652.293)">
		<g id="sale-2" transform="translate(3223.5 1522.945)">
			<g id="Group_4702-2">
				<g id="Group_4701-2">
					<path id="Path_28-2" d="M-8408.4,15454.3h4.5c0.4,0,0.8,0.2,1.1,0.5l6.4,6.4c0.6,0.6,0.6,1.7,0,2.3c0,0,0,0,0,0l-4.5,4.5
						c-0.6,0.6-1.7,0.6-2.3,0c0,0,0,0,0,0l-6.4-6.4c-0.3-0.3-0.5-0.7-0.5-1.1v-4.5C-8410,15455.1-8409.3,15454.3-8408.4,15454.3z
						 M-8406.2,15459.8c0.9,0,1.6-0.7,1.6-1.6s-0.7-1.6-1.6-1.6s-1.6,0.7-1.6,1.6S-8407.1,15459.8-8406.2,15459.8z"/>
				</g>
			</g>
		</g>
	</g>
	<path id="Path_1" d="M165.4,388.3l4.6,4.6l4.6-4.6l1.4,1.4l-6.1,6.1l-6.1-6.1L165.4,388.3z"/>
	<path id="Path_1-2" class="st4" d="M213.4,388.3l4.6,4.6l4.6-4.6l1.4,1.4l-6.1,6.1l-6.1-6.1L213.4,388.3z"/>
	<path id="iconfinder_shop-01_186387" d="M178.3,463.5l2.5-7.4c0.1-0.2,0.1-0.5-0.1-0.7c-0.2-0.2-0.6-0.4-0.9-0.4h-14l-0.4-1.9
		c-0.1-0.5-0.5-0.9-1-0.9h-3.9c-0.4,0-0.6,0.4-0.6,0.8v1c0,0.4,0.2,0.3,0.6,0.3h3.3l2.5,10.9c-0.4,0.5-0.6,1.1-0.6,1.7
		c0,1.3,1,2.4,2.3,2.4c1.1-0.1,2-0.9,2.3-1.9h5c0.2,1.1,1.2,1.9,2.3,2c1.3,0,2.3-1,2.3-2.3c0.1-1.3-0.8-2.4-2.1-2.5
		c-0.1,0-0.1,0-0.2,0c-0.7-0.1-1.4,0.2-1.7,0.8h-6.1c-0.4-0.6-1-0.9-1.7-0.9l-0.1-0.4h9.3C178.1,464,178.2,463.9,178.3,463.5z
		 M167.2,467.1c-0.3,0-0.6,0.3-0.6,0.6c0,0.3,0.3,0.6,0.6,0.6s0.6-0.3,0.6-0.6C167.8,467.4,167.5,467.1,167.2,467.1L167.2,467.1z
		 M177.7,468c-0.5,0-0.9-0.4-0.9-0.9c0-0.5,0.4-0.9,0.9-0.9c0.5,0,0.9,0.4,0.9,0.9c0,0.2-0.1,0.5-0.3,0.6
		C178.1,467.9,177.9,468,177.7,468z"/>
	<path id="iconfinder_shop-01_186387-2" class="st4" d="M226.3,463.5l2.5-7.4c0.1-0.2,0.1-0.5-0.1-0.7c-0.2-0.2-0.6-0.4-0.9-0.4h-14
		l-0.4-1.9c-0.1-0.5-0.5-0.9-1-0.9h-3.9c-0.4,0-0.6,0.4-0.6,0.8v1c0,0.4,0.2,0.3,0.6,0.3h3.3l2.5,10.9c-0.4,0.5-0.6,1.1-0.6,1.7
		c0,1.3,1,2.4,2.3,2.4c1.1-0.1,2-0.9,2.3-1.9h5c0.2,1.1,1.2,1.9,2.3,2c1.3,0,2.3-1,2.3-2.3c0.1-1.3-0.8-2.4-2.1-2.5
		c-0.1,0-0.1,0-0.2,0c-0.7-0.1-1.4,0.2-1.7,0.8h-6.1c-0.4-0.6-1-0.9-1.7-0.9l-0.1-0.4h9.3C226.1,464,226.2,463.9,226.3,463.5z
		 M215.2,467.1c-0.3,0-0.6,0.3-0.6,0.6c0,0.3,0.3,0.6,0.6,0.6s0.6-0.3,0.6-0.6C215.8,467.4,215.5,467.1,215.2,467.1L215.2,467.1z
		 M225.7,468c-0.5,0-0.9-0.4-0.9-0.9c0-0.5,0.4-0.9,0.9-0.9c0.5,0,0.9,0.4,0.9,0.9c0,0.2-0.1,0.5-0.3,0.6
		C226.1,467.9,225.9,468,225.7,468z"/>
	<path id="foursquare-check-in" d="M3,116.4l8.9,8.9L29,108.2l-2.5-1.9L11.9,121l-6.5-6.5L3,116.4z"/>
	<path id="foursquare-check-in-2" class="st4" d="M3,64.4l8.9,8.9L29,56.2l-2.5-1.9L11.9,69l-6.5-6.5L3,64.4z"/>
	<g id="Fill-3" transform="translate(8416 -15193)">
		<rect id="Rectangle_93-3" x="-8399" y="15462.3" class="st11" width="1" height="8"/>
		<rect id="Rectangle_94-3" x="-8397" y="15462.3" class="st11" width="1" height="8"/>
		<rect id="Rectangle_95-3" x="-8401" y="15462.3" class="st11" width="1" height="8"/>
		<path id="Path_11-3" class="st11" d="M-8396,15458.8v-0.6c0-1-0.8-1.9-1.9-1.9h-1.3c-1,0-1.9,0.8-1.9,1.9v0.6h-5v1.3h1.3l1.4,12.6
			c0,1,0.9,1.9,1.9,1.9h5c1,0,2.3-0.8,2.3-1.9l1.9-12.6h1.3v-1.3H-8396z M-8399.8,15458.2c0-0.3,0.3-0.6,0.6-0.6h1.3
			c0.3,0,0.6,0.3,0.6,0.6v0.6h-2.5V15458.2z M-8395.4,15472.7c0,0.3-0.7,0.6-1.1,0.6h-5l-0.5-0.2l-0.2-0.4l-1.4-12.6h10
			L-8395.4,15472.7z"/>
	</g>
	<g id="Group_80" transform="translate(3 53)">
		<path id="Rectangle_12-8" class="st4" d="M30,104.6l0.2,0.2c0.4,0.4,0.4,1.1,0,1.6l-16.4,16.4c-0.4,0.4-1.1,0.4-1.6,0l-0.2-0.2
			c-0.4-0.4-0.4-1.1,0-1.6l16.4-16.4C28.8,104.1,29.6,104.1,30,104.6z"/>
		<path id="Rectangle_12-9" class="st4" d="M3.5,113.2l0.2-0.2c0.4-0.4,1.1-0.4,1.6,0l0,0l7.9,7.9c0.4,0.4,0.4,1.1,0,1.6
			c0,0,0,0,0,0l0.4,0.3c-0.4,0.4-1.7,0.3-2.1-0.2l-7.9-7.9C3.1,114.4,3.1,113.7,3.5,113.2z"/>
	</g>
	<g id="Group_81" transform="translate(3 100)">
		<path id="Rectangle_12-10" d="M30,104.6l0.2,0.2c0.4,0.4,0.4,1.1,0,1.6l-16.4,16.4c-0.4,0.4-1.1,0.4-1.6,0l-0.2-0.2
			c-0.4-0.4-0.4-1.1,0-1.6l16.4-16.4C28.8,104.1,29.6,104.1,30,104.6z"/>
		<path id="Rectangle_12-11" d="M3.5,113.2l0.2-0.2c0.4-0.4,1.1-0.4,1.6,0l0,0l7.9,7.9c0.4,0.4,0.4,1.1,0,1.6c0,0,0,0,0,0l0.4,0.3
			c-0.4,0.4-1.7,0.3-2.1-0.2l-7.9-7.9C3.1,114.4,3.1,113.7,3.5,113.2z"/>
	</g>
	<g id="Ellipse_5" transform="translate(-2066 -1030)">
		<circle class="st12" cx="2084.7" cy="1488.2" r="15"/>
		<circle class="st12" cx="2084.7" cy="1488.2" r="14"/>
	</g>
	<g id="Group_53" transform="translate(0 -65)">
		<g id="Ellipse_5-2" transform="translate(-2066 -1030)">
			<circle class="st13" cx="2085" cy="1490.3" r="15"/>
			<circle class="st14" cx="2085" cy="1490.3" r="14.5"/>
		</g>
		<g id="Path_38" transform="translate(-2062 -1026)">
			<path id="Path_38-2" class="st15" d="M2081,1496.8c-5.8,0-10.5-4.7-10.5-10.5s4.7-10.5,10.5-10.5s10.5,4.7,10.5,10.5
				S2086.8,1496.8,2081,1496.8z"/>
			<path id="Path_39" class="st15" d="M2081,1476.3c-5.5,0-10,4.5-10,10s4.5,10,10,10s10-4.5,10-10S2086.5,1476.3,2081,1476.3
				 M2081,1475.3c6.1,0,11,4.9,11,11s-4.9,11-11,11s-11-4.9-11-11S2074.9,1475.3,2081,1475.3z"/>
		</g>
		<path id="iconfinder_arrow56_216567_1_9" class="st4" d="M15.5,454.2l0.8-0.8l6.5,6.6l0.4,0.4l-0.4,0.4l-6.5,6.6l-0.8-0.8l6-6.2
			L15.5,454.2z"/>
	</g>
	<g>
		<rect x="18.5" y="328.5" class="st4" width="1" height="8"/>
		<rect x="20.5" y="328.5" class="st4" width="1" height="8"/>
		<rect x="16.5" y="328.5" class="st4" width="1" height="8"/>
		<path class="st4" d="M21.5,325v-0.6c0-1-0.8-1.9-1.9-1.9h-1.3c-1,0-1.9,0.8-1.9,1.9v0.6h-5v1.3h1.3v11.9c0,1,0.8,1.9,1.9,1.9l0,0
			h8.8c1,0,1.9-0.8,1.9-1.9l0,0v-11.9h1.3V325H21.5z M17.7,324.4c0-0.3,0.3-0.6,0.6-0.6h1.3c0.3,0,0.6,0.3,0.6,0.6v0.6h-2.5V324.4z
			 M24,338.1c0,0.3-0.3,0.6-0.6,0.6h-8.8c-0.3,0-0.6-0.3-0.6-0.6v-11.9h10V338.1z"/>
	</g>
	<g>
		<rect x="17.4" y="454.8" width="2.6" height="11.5"/>
		<circle cx="18.7" cy="451.6" r="1.6"/>
	</g>
</g>
</svg>
