<svg width="80" height="740" viewBox="0 0 80 740" fill="none" xmlns="http://www.w3.org/2000/svg">
<path d="M7.61958 1.17067C7.73933 0.80216 8.26067 0.802159 8.38042 1.17067L9.70646 5.25129C9.76001 5.41608 9.91359 5.52766 10.0869 5.52767L14.3775 5.52783C14.765 5.52784 14.9261 6.02366 14.6126 6.25143L11.1415 8.77355C11.0013 8.87541 10.9427 9.05594 10.9962 9.22074L12.322 13.3015C12.4417 13.67 12.0199 13.9764 11.7064 13.7487L8.2351 11.2268C8.09491 11.125 7.90509 11.125 7.7649 11.2268L4.29358 13.7487C3.9801 13.9764 3.55833 13.67 3.67805 13.3015L5.00378 9.22074C5.05732 9.05594 4.99866 8.87541 4.85848 8.77355L1.38735 6.25143C1.07389 6.02366 1.23499 5.52784 1.62246 5.52783L5.91313 5.52767C6.08641 5.52766 6.23998 5.41608 6.29354 5.25129L7.61958 1.17067Z" fill="#1A1A1A"/>
<path d="M23.6196 1.17067C23.7393 0.80216 24.2607 0.802159 24.3804 1.17067L25.7065 5.25129C25.76 5.41608 25.9136 5.52766 26.0869 5.52767L30.3775 5.52783C30.765 5.52784 30.9261 6.02366 30.6126 6.25143L27.1415 8.77355C27.0013 8.87541 26.9427 9.05594 26.9962 9.22074L28.322 13.3015C28.4417 13.67 28.0199 13.9764 27.7064 13.7487L24.2351 11.2268C24.0949 11.125 23.9051 11.125 23.7649 11.2268L20.2936 13.7487C19.9801 13.9764 19.5583 13.67 19.678 13.3015L21.0038 9.22074C21.0573 9.05594 20.9987 8.87541 20.8585 8.77355L17.3874 6.25143C17.0739 6.02366 17.235 5.52784 17.6225 5.52783L21.9131 5.52767C22.0864 5.52766 22.24 5.41608 22.2935 5.25129L23.6196 1.17067Z" fill="#1A1A1A"/>
<path d="M39.6196 1.17067C39.7393 0.80216 40.2607 0.802159 40.3804 1.17067L41.7065 5.25129C41.76 5.41608 41.9136 5.52766 42.0869 5.52767L46.3775 5.52783C46.765 5.52784 46.9261 6.02366 46.6126 6.25143L43.1415 8.77355C43.0013 8.87541 42.9427 9.05594 42.9962 9.22074L44.322 13.3015C44.4417 13.67 44.0199 13.9764 43.7064 13.7487L40.2351 11.2268C40.0949 11.125 39.9051 11.125 39.7649 11.2268L36.2936 13.7487C35.9801 13.9764 35.5583 13.67 35.678 13.3015L37.0038 9.22074C37.0573 9.05594 36.9987 8.87541 36.8585 8.77355L33.3874 6.25143C33.0739 6.02366 33.235 5.52784 33.6225 5.52783L37.9131 5.52767C38.0864 5.52766 38.24 5.41608 38.2935 5.25129L39.6196 1.17067Z" fill="#1A1A1A"/>
<path d="M55.6196 1.17067C55.7393 0.80216 56.2607 0.802159 56.3804 1.17067L57.7065 5.25129C57.76 5.41608 57.9136 5.52766 58.0869 5.52767L62.3775 5.52783C62.765 5.52784 62.9261 6.02366 62.6126 6.25143L59.1415 8.77355C59.0013 8.87541 58.9427 9.05594 58.9962 9.22074L60.322 13.3015C60.4417 13.67 60.0199 13.9764 59.7064 13.7487L56.2351 11.2268C56.0949 11.125 55.9051 11.125 55.7649 11.2268L52.2936 13.7487C51.9801 13.9764 51.5583 13.67 51.678 13.3015L53.0038 9.22074C53.0573 9.05594 52.9987 8.87541 52.8585 8.77355L49.3874 6.25143C49.0739 6.02366 49.235 5.52784 49.6225 5.52783L53.9131 5.52767C54.0864 5.52766 54.24 5.41608 54.2935 5.25129L55.6196 1.17067Z" fill="#1A1A1A"/>
<path d="M71.6196 1.17067C71.7393 0.80216 72.2607 0.802159 72.3804 1.17067L73.7065 5.25129C73.76 5.41608 73.9136 5.52766 74.0869 5.52767L78.3775 5.52783C78.765 5.52784 78.9261 6.02366 78.6126 6.25143L75.1415 8.77355C75.0013 8.87541 74.9427 9.05594 74.9962 9.22074L76.322 13.3015C76.4417 13.67 76.0199 13.9764 75.7064 13.7487L72.2351 11.2268C72.0949 11.125 71.9051 11.125 71.7649 11.2268L68.2936 13.7487C67.9801 13.9764 67.5583 13.67 67.678 13.3015L69.0038 9.22074C69.0573 9.05594 68.9987 8.87541 68.8585 8.77355L65.3874 6.25143C65.0739 6.02366 65.235 5.52784 65.6225 5.52783L69.9131 5.52767C70.0864 5.52766 70.24 5.41608 70.2935 5.25129L71.6196 1.17067Z" fill="#1A1A1A"/>
<path d="M7.61958 25.1707C7.73933 24.8022 8.26067 24.8022 8.38042 25.1707L9.70646 29.2513C9.76001 29.4161 9.91359 29.5276 10.0869 29.5277L14.3775 29.5278C14.765 29.5278 14.9261 30.0237 14.6126 30.2514L11.1415 32.7735C11.0013 32.8754 10.9427 33.0559 10.9962 33.2207L12.322 37.3015C12.4417 37.67 12.0199 37.9764 11.7064 37.7487L8.2351 35.2268C8.09491 35.125 7.90509 35.125 7.7649 35.2268L4.29358 37.7487C3.9801 37.9764 3.55833 37.67 3.67805 37.3015L5.00378 33.2207C5.05732 33.0559 4.99866 32.8754 4.85848 32.7735L1.38735 30.2514C1.07389 30.0237 1.23499 29.5278 1.62246 29.5278L5.91313 29.5277C6.08641 29.5276 6.23998 29.4161 6.29354 29.2513L7.61958 25.1707Z" fill="#C7C7C7"/>
<path d="M23.6196 25.1707C23.7393 24.8022 24.2607 24.8022 24.3804 25.1707L25.7065 29.2513C25.76 29.4161 25.9136 29.5276 26.0869 29.5277L30.3775 29.5278C30.765 29.5278 30.9261 30.0237 30.6126 30.2514L27.1415 32.7735C27.0013 32.8754 26.9427 33.0559 26.9962 33.2207L28.322 37.3015C28.4417 37.67 28.0199 37.9764 27.7064 37.7487L24.2351 35.2268C24.0949 35.125 23.9051 35.125 23.7649 35.2268L20.2936 37.7487C19.9801 37.9764 19.5583 37.67 19.678 37.3015L21.0038 33.2207C21.0573 33.0559 20.9987 32.8754 20.8585 32.7735L17.3874 30.2514C17.0739 30.0237 17.235 29.5278 17.6225 29.5278L21.9131 29.5277C22.0864 29.5276 22.24 29.4161 22.2935 29.2513L23.6196 25.1707Z" fill="#C7C7C7"/>
<path d="M39.6196 25.1707C39.7393 24.8022 40.2607 24.8022 40.3804 25.1707L41.7065 29.2513C41.76 29.4161 41.9136 29.5276 42.0869 29.5277L46.3775 29.5278C46.765 29.5278 46.9261 30.0237 46.6126 30.2514L43.1415 32.7735C43.0013 32.8754 42.9427 33.0559 42.9962 33.2207L44.322 37.3015C44.4417 37.67 44.0199 37.9764 43.7064 37.7487L40.2351 35.2268C40.0949 35.125 39.9051 35.125 39.7649 35.2268L36.2936 37.7487C35.9801 37.9764 35.5583 37.67 35.678 37.3015L37.0038 33.2207C37.0573 33.0559 36.9987 32.8754 36.8585 32.7735L33.3874 30.2514C33.0739 30.0237 33.235 29.5278 33.6225 29.5278L37.9131 29.5277C38.0864 29.5276 38.24 29.4161 38.2935 29.2513L39.6196 25.1707Z" fill="#C7C7C7"/>
<path d="M55.6196 25.1707C55.7393 24.8022 56.2607 24.8022 56.3804 25.1707L57.7065 29.2513C57.76 29.4161 57.9136 29.5276 58.0869 29.5277L62.3775 29.5278C62.765 29.5278 62.9261 30.0237 62.6126 30.2514L59.1415 32.7735C59.0013 32.8754 58.9427 33.0559 58.9962 33.2207L60.322 37.3015C60.4417 37.67 60.0199 37.9764 59.7064 37.7487L56.2351 35.2268C56.0949 35.125 55.9051 35.125 55.7649 35.2268L52.2936 37.7487C51.9801 37.9764 51.5583 37.67 51.678 37.3015L53.0038 33.2207C53.0573 33.0559 52.9987 32.8754 52.8585 32.7735L49.3874 30.2514C49.0739 30.0237 49.235 29.5278 49.6225 29.5278L53.9131 29.5277C54.0864 29.5276 54.24 29.4161 54.2935 29.2513L55.6196 25.1707Z" fill="#C7C7C7"/>
<path d="M71.6196 25.1707C71.7393 24.8022 72.2607 24.8022 72.3804 25.1707L73.7065 29.2513C73.76 29.4161 73.9136 29.5276 74.0869 29.5277L78.3775 29.5278C78.765 29.5278 78.9261 30.0237 78.6126 30.2514L75.1415 32.7735C75.0013 32.8754 74.9427 33.0559 74.9962 33.2207L76.322 37.3015C76.4417 37.67 76.0199 37.9764 75.7064 37.7487L72.2351 35.2268C72.0949 35.125 71.9051 35.125 71.7649 35.2268L68.2936 37.7487C67.9801 37.9764 67.5583 37.67 67.678 37.3015L69.0038 33.2207C69.0573 33.0559 68.9987 32.8754 68.8585 32.7735L65.3874 30.2514C65.0739 30.0237 65.235 29.5278 65.6225 29.5278L69.9131 29.5277C70.0864 29.5276 70.24 29.4161 70.2935 29.2513L71.6196 25.1707Z" fill="#C7C7C7"/>
<path d="M16.588 85.7242C16.1968 86.1185 15.5593 86.1185 15.1681 85.7242L12.4757 83.0101C12.0846 82.6158 11.447 82.6158 11.0558 83.0101L10.6986 83.3702C10.3119 83.7601 10.3119 84.3888 10.6986 84.7787L15.1681 89.2843C15.5593 89.6786 16.1968 89.6786 16.588 89.2843L27.3014 78.4843C27.6881 78.0944 27.6881 77.4657 27.3014 77.0758L26.9442 76.7157C26.553 76.3214 25.9154 76.3214 25.5243 76.7157L16.588 85.7242Z" fill="white"/>
<path d="M24.1934 136C23.763 136 23.4187 135.862 23.1605 135.585L12.7019 125.978C12.4006 125.702 12.25 125.385 12.25 125.03C12.25 124.674 12.4006 124.338 12.7019 124.022L23.1605 114.415C23.4617 114.138 23.8276 114 24.258 114C24.6884 114 25.0327 114.138 25.2909 114.415C25.5491 114.692 25.6998 115.008 25.7428 115.364C25.7859 115.72 25.6352 116.056 25.2909 116.372L15.8653 125.03L25.2909 133.687C25.5922 133.964 25.7428 134.28 25.7428 134.636C25.7428 134.992 25.5922 135.308 25.2909 135.585C24.9896 135.862 24.6238 136 24.1934 136Z" fill="black" fill-opacity="0.5"/>
<path d="M13.8066 182C14.237 182 14.5813 181.862 14.8395 181.585L25.2981 171.978C25.5994 171.702 25.75 171.385 25.75 171.03C25.75 170.674 25.5994 170.338 25.2981 170.022L14.8395 160.415C14.5383 160.138 14.1724 160 13.742 160C13.3116 160 12.9673 160.138 12.7091 160.415C12.4509 160.692 12.3002 161.008 12.2572 161.364C12.2141 161.72 12.3648 162.056 12.7091 162.372L22.1347 171.03L12.7091 179.687C12.4078 179.964 12.2572 180.28 12.2572 180.636C12.2572 180.992 12.4078 181.308 12.7091 181.585C13.0104 181.862 13.3762 182 13.8066 182Z" fill="black"/>
<path d="M23.787 206.86L19.6798 212.006C19.2902 212.477 18.6896 212.477 18.3162 212.006L14.2091 206.86C13.8195 206.373 14.0143 206 14.6149 206H23.3811C23.998 206 24.1766 206.373 23.787 206.86Z" fill="black"/>
<path d="M20.8 241.16H24.4C25.12 241.16 25.6 241.64 25.6 242.36V243.56H10V242.36C10 241.64 10.6 241.16 11.2 241.16H14.8C15.04 239.84 16.36 238.76 17.8 238.76C19.24 238.76 20.56 239.84 20.8 241.16ZM16 241.16H19.6C19.36 240.44 18.52 239.96 17.8 239.96C17.08 239.96 16.24 240.44 16 241.16ZM11.2 244.76H24.4L23.32 256.88C23.32 257.48 22.72 257.96 22.12 257.96H13.48C12.88 257.96 12.4 257.48 12.28 256.88L11.2 244.76Z" fill="#8B8B8B"/>
<path d="M25.4166 285.652L24.1241 284.36L19 289.484L13.8758 284.36L12.5833 285.652L17.7075 290.776L12.5833 295.9L13.8758 297.193L19 292.069L24.1241 297.193L25.4166 295.9L20.2925 290.776L25.4166 285.652Z" fill="#1A1A1A"/>
<path d="M26 335.83H12V333.579H26V335.83Z" fill="#999999"/>
<path d="M26 386.854H20V393.61H18V386.854H12V384.602H18V377.846H20V384.602H26V386.854Z" fill="#999999"/>
<path d="M19 428.239V442.239" stroke="white" stroke-width="3.5" stroke-linecap="round" stroke-linejoin="round"/>
<path d="M12 435.239H26" stroke="white" stroke-width="3.5" stroke-linecap="round" stroke-linejoin="round"/>
<path d="M19 428.239V442.239" stroke="white" stroke-width="3.5" stroke-linecap="round" stroke-linejoin="round"/>
<path d="M12 435.239H26" stroke="white" stroke-width="3.5" stroke-linecap="round" stroke-linejoin="round"/>
<path d="M19 471.239V488.739" stroke="black" stroke-width="2" stroke-linejoin="round"/>
<path d="M10.25 479.989H27.75" stroke="black" stroke-width="2" stroke-linejoin="round"/>
<path d="M16.8125 519.996L13.9311 517.114L12.6938 518.352L16.8125 522.47L25.3061 513.977L24.0688 512.739L16.8125 519.996Z" fill="white"/>
<path d="M15.795 557.05L11.625 552.88L10.205 554.29L15.795 559.88L27.795 547.88L26.385 546.47L15.795 557.05Z" fill="#37A703"/>
<path d="M22.705 594.47L18.125 589.88L22.705 585.29L21.295 583.88L15.295 589.88L21.295 595.88L22.705 594.47Z" fill="black"/>
<path d="M25.6667 629.047C25.4457 629.047 25.2337 629.135 25.0774 629.291C24.9211 629.447 24.8333 629.659 24.8333 629.88V634.88C24.8333 635.101 24.7455 635.313 24.5893 635.47C24.433 635.626 24.221 635.714 24 635.714H14C13.779 635.714 13.567 635.626 13.4107 635.47C13.2545 635.313 13.1667 635.101 13.1667 634.88V624.88C13.1667 624.659 13.2545 624.447 13.4107 624.291C13.567 624.135 13.779 624.047 14 624.047H19C19.221 624.047 19.433 623.959 19.5893 623.803C19.7455 623.647 19.8333 623.435 19.8333 623.214C19.8333 622.993 19.7455 622.781 19.5893 622.624C19.433 622.468 19.221 622.38 19 622.38H14C13.337 622.38 12.7011 622.644 12.2322 623.112C11.7634 623.581 11.5 624.217 11.5 624.88V634.88C11.5 635.543 11.7634 636.179 12.2322 636.648C12.7011 637.117 13.337 637.38 14 637.38H24C24.663 637.38 25.2989 637.117 25.7678 636.648C26.2366 636.179 26.5 635.543 26.5 634.88V629.88C26.5 629.659 26.4122 629.447 26.2559 629.291C26.0996 629.135 25.8877 629.047 25.6667 629.047Z" fill="#1A1A1A"/>
<path d="M22.3334 624.047H23.65L18.4084 629.28C18.3303 629.358 18.2683 629.45 18.226 629.551C18.1836 629.653 18.1619 629.762 18.1619 629.872C18.1619 629.982 18.1836 630.091 18.226 630.192C18.2683 630.294 18.3303 630.386 18.4084 630.464C18.4858 630.542 18.578 630.604 18.6795 630.646C18.7811 630.688 18.89 630.71 19 630.71C19.11 630.71 19.219 630.688 19.3205 630.646C19.4221 630.604 19.5142 630.542 19.5917 630.464L24.8334 625.23V626.547C24.8334 626.768 24.9212 626.98 25.0774 627.136C25.2337 627.292 25.4457 627.38 25.6667 627.38C25.8877 627.38 26.0997 627.292 26.256 627.136C26.4122 626.98 26.5 626.768 26.5 626.547V623.214C26.5 622.993 26.4122 622.781 26.256 622.624C26.0997 622.468 25.8877 622.38 25.6667 622.38H22.3334C22.1123 622.38 21.9004 622.468 21.7441 622.624C21.5878 622.781 21.5 622.993 21.5 623.214C21.5 623.435 21.5878 623.647 21.7441 623.803C21.9004 623.959 22.1123 624.047 22.3334 624.047Z" fill="#1A1A1A"/>
<path d="M29 669.999H29.35V669.649V666.987V666.637H29H20.7786V659V658.65H20.4286H17.5714H17.2214V659V666.637H8.99999H8.64999V666.987V669.649V669.999H8.99999H17.2214V677.636V677.986H17.5714H20.4286H20.7786V677.636V669.999H29Z" fill="#585858" stroke="black" stroke-width="0.7"/>
<path fill-rule="evenodd" clip-rule="evenodd" d="M21.5 718.736C21.5 719.289 21.2805 719.819 20.8898 720.209C20.4991 720.6 19.9692 720.819 19.4167 720.819C18.8641 720.819 18.3342 720.6 17.9435 720.209C17.5528 719.819 17.3333 719.289 17.3333 718.736V712.486H11.0833C10.5308 712.486 10.0009 712.267 9.61019 711.876C9.21949 711.485 9 710.955 9 710.403C9 709.85 9.21949 709.32 9.61019 708.93C10.0009 708.539 10.5308 708.319 11.0833 708.319H17.3333V702.069C17.3333 701.517 17.5528 700.987 17.9435 700.596C18.3342 700.206 18.8641 699.986 19.4167 699.986C19.9692 699.986 20.4991 700.206 20.8898 700.596C21.2805 700.987 21.5 701.517 21.5 702.069V708.319H27.75C28.3025 708.319 28.8324 708.539 29.2231 708.93C29.6138 709.32 29.8333 709.85 29.8333 710.403C29.8333 710.955 29.6138 711.485 29.2231 711.876C28.8324 712.267 28.3025 712.486 27.75 712.486H21.5V718.736Z" fill="black"/>
</svg>
