<svg width="15" height="16" viewBox="0 0 15 16" fill="none" xmlns="http://www.w3.org/2000/svg">
<path d="M7.5 14.2344C5.84654 14.2344 4.2608 13.5775 3.09163 12.4084C1.92246 11.2392 1.26563 9.65346 1.26562 8C1.26562 6.34654 1.92246 4.7608 3.09163 3.59163C4.2608 2.42246 5.84654 1.76563 7.5 1.76562C9.15346 1.76562 10.7392 2.42246 11.9084 3.59163C13.0775 4.7608 13.7344 6.34654 13.7344 8C13.7344 9.65346 13.0775 11.2392 11.9084 12.4084C10.7392 13.5775 9.15346 14.2344 7.5 14.2344ZM7.5 15.125C9.38967 15.125 11.2019 14.3743 12.5381 13.0381C13.8743 11.7019 14.625 9.88967 14.625 8C14.625 6.11033 13.8743 4.29806 12.5381 2.96186C11.2019 1.62567 9.38967 0.875 7.5 0.875C5.61033 0.875 3.79806 1.62567 2.46186 2.96186C1.12567 4.29806 0.375 6.11033 0.375 8C0.375 9.88967 1.12567 11.7019 2.46186 13.0381C3.79806 14.3743 5.61033 15.125 7.5 15.125V15.125Z" fill="black"/>
<path d="M8.32832 6.74244L6.28878 6.99805L6.21575 7.33648L6.61653 7.41041C6.87838 7.47275 6.93003 7.56716 6.87303 7.82811L6.21575 10.9168C6.04297 11.7157 6.30927 12.0915 6.93538 12.0915C7.42077 12.0915 7.98453 11.8671 8.24014 11.5589L8.31852 11.1884C8.14039 11.3452 7.88033 11.4075 7.70755 11.4075C7.46263 11.4075 7.37356 11.2356 7.4368 10.9328L8.32832 6.74244ZM8.39066 4.88281C8.39066 5.11902 8.29682 5.34555 8.1298 5.51258C7.96278 5.6796 7.73624 5.77344 7.50003 5.77344C7.26383 5.77344 7.03729 5.6796 6.87027 5.51258C6.70324 5.34555 6.60941 5.11902 6.60941 4.88281C6.60941 4.6466 6.70324 4.42007 6.87027 4.25305C7.03729 4.08602 7.26383 3.99219 7.50003 3.99219C7.73624 3.99219 7.96278 4.08602 8.1298 4.25305C8.29682 4.42007 8.39066 4.6466 8.39066 4.88281Z" fill="black"/>
</svg>
